M48
;Layer_Color=9474304
;FILE_FORMAT=4:4
METRIC,TZ
;TYPE=PLATED
T1F00S00C0.3000
T2F00S00C0.5000
T3F00S00C0.8000
T4F00S00C0.9000
T5F00S00C1.0160
T6F00S00C1.0200
T7F00S00C1.0500
T8F00S00C3.2000
;TYPE=NON_PLATED
T9F00S00C1.0500
T10F00S00C1.6000
%
T01
X16000Y85000
X93000Y22000
X257000Y23000
X282000Y67000
Y81000
X225000Y70000
X380000Y8000
X396000Y22000
X541200Y29150
X541200Y41850
X563900Y47650
X573900
Y60650
X563900
Y73650
X573900
X602500
X612500Y73650
Y60650
X602500Y60650
Y47650
X612500
X635200Y41850
Y54550
X635200Y67250
X644000Y80000
X667000Y66000
X695000Y79000
X635200Y29150
X626300Y20250
X613600
X600900
X586200Y20146
X575500Y20250
X562800
X550100
X837000Y35000
X927000Y129000
X985000Y216000
X955816Y372000
X924500Y434455
X893000Y312000
X882000Y323000
X862000Y322000
X826000
X833000Y355000
X850000Y366000
X784000Y372000
X782320Y450088
X851000Y467000
X697230Y473710
X671068Y459994
X673100Y419100
X665480Y404598
X675000Y370000
X690880Y350520
X633000Y375000
X595376Y404622
X582676Y392684
X548640Y388620
X533400
X513080Y430530
X556260Y435610
X570230Y427990
X605028Y455930
X619760Y453390
X535940Y467360
X534162Y479060
X491490Y478790
X541000Y300000
X532000Y202000
X507000Y173000
Y143000
X514000Y116000
X494000
X532000Y106000
X540000Y131000
X560000
X578700Y135146
Y152253
X588450Y143700
X598200Y152253
Y135146
X600200Y110146
X587200
X574200
X617328Y143450
X633000Y198000
X691000Y184000
Y164000
Y144000
Y124000
X655000Y107000
X794000Y120000
X875000Y297000
X489000Y215000
X454000Y218000
Y207000
X358140Y208280
X281000Y212000
X267000
X253000
X261620Y271780
X284227Y279147
X251460Y320040
X210820Y294640
X198120Y299720
X196000Y336000
X194000Y360000
X173000Y407000
X132000Y401000
X122000Y394000
X127000Y373000
X101000Y417000
X126500Y460722
X128000Y479000
X252476Y457708
X276860Y391160
X297180Y383476
X289560Y370840
X273558Y365506
X319231Y397750
X360000Y379000
X392010Y387350
X397510Y406400
X441198Y407162
X449580Y416306
X437046Y425616
X431800Y431800
X415290Y434340
X431800Y464820
X390144Y483108
X369062Y469392
X353060Y466090
X330200Y322580
X361671Y300140
X431800Y336550
X466090Y367680
X474000Y116000
X276000
X282000Y95000
X214000
X207000Y121000
X157000Y107000
X146000Y157000
X104000Y167000
X88840Y167114
X119000Y200000
X134000Y241000
X147500Y229500
X137000Y271000
X114000Y305000
X87223Y246223
X220000Y175000
X74000Y166000
X62000Y243000
X43000Y255000
X47000Y282000
X63500Y312500
X38000Y384000
X37920Y411920
X60820Y408820
X76000Y417000
X41498Y442502
X55500Y486500
X56000Y530000
X80500Y529500
X22000Y506000
X41000Y588000
X74000Y622000
X65000Y646000
X55000
Y666000
X56000Y689000
X38000Y680000
X48000Y780000
Y794000
X49000Y851000
X35000
X25000Y857000
X18000Y867000
X65000Y864000
X77000
X59000Y855000
X70000Y841000
X82667
X95333
X108000
X110000Y852000
X104000Y866000
X102000Y878000
X165100Y877570
X225029Y878601
X220980Y855980
X217170Y820420
X220980Y796290
X229870Y795274
X243840
X267208Y777494
X289000Y797560
X278209Y856059
X360474Y879904
X372110Y792480
X370840Y732790
X356000Y738000
X403860Y749300
X409575Y686435
X382161Y670838
X388620Y659130
X375920Y624840
X367630Y633130
X332000Y634000
X322580Y673258
X212000Y666000
X220000Y724000
X146000Y683000
X108794Y711864
X116000Y780000
Y794000
X90000Y622161
X88000Y572000
X102000Y489000
X153000Y500000
X171000Y543000
X177000Y560000
X220000Y589000
X229000Y609000
X275000Y594000
X277003Y548640
X276588Y533933
X277003Y519430
X227835Y531000
X352552Y486410
X430530Y501650
X465720Y504560
X466090Y495300
X468630Y538480
X478790Y539750
X466090Y558800
Y566420
X465779Y573913
X442332Y602878
X455930Y623570
X469900Y627380
X472440Y638810
X476250Y615950
X443230Y648970
X451000Y657000
X468630Y711200
X467360Y741680
X476000Y774000
X397510Y604520
X412750Y563880
X488871Y566341
X497840Y581660
X519000Y584630
X546100Y575564
X550926Y568960
X560578Y565912
X556260Y545680
X567690Y546100
X574040Y533400
X566420Y509270
X505460Y515620
X488950Y516890
Y508000
X490220Y539750
X490250Y621030
X482750
X501396Y623570
X501729Y615871
X518160Y661670
X524870Y676000
X520700Y684530
X573532Y652780
X586430Y642056
X609349Y630431
X617220Y620014
X652272Y649986
X693674Y662432
X710400Y672846
X709168Y632968
X736092Y644144
X744982Y655828
X753110Y685546
X767334Y692150
X797306Y713806
X805810Y725546
X793750Y661162
X781050Y610362
X800000Y583000
X815340Y568960
X790956Y531114
X787146Y491490
X662940Y487680
Y502920
X659080Y523190
X658840Y538190
X621030Y552450
X661670Y700278
Y707778
X675640Y784860
X673100Y792480
X668020Y812800
Y840740
X637540Y828040
X565000Y800000
X572000Y756000
Y729000
X551000Y743000
X593000
X713740Y802640
Y853440
X769620Y828040
X865000Y766000
X855980Y688086
X851000Y637000
X742950Y618998
X490600Y877950
X893000Y779000
X984000Y778000
X991000Y816000
X980000Y716000
X981000Y688000
X978000Y656000
X960000Y702000
X885000Y669000
X936790Y902210
X905300Y998700
X901586Y1037000
X903123Y1049877
X904240Y1076960
X939800
X990600Y1140460
X928000Y1205000
X976000Y991000
X873000Y982000
X853000Y1029000
Y1054000
X819477Y1055000
X819223Y1038210
X784123Y1023000
X822000Y1100000
X869000Y1107670
X853000Y1205000
X785000Y1183000
X775000Y1229000
X763000Y1270000
X794000Y1268735
X696500Y1257000
X700000Y1234000
X677000Y1241213
X649444Y1223556
X649000Y1203000
X657000Y1178000
X651000Y1158000
X627000Y1171000
X624000Y1221000
X630000Y1230500
X613000Y1231000
X587000Y1215000
X590000Y1197000
X577000Y1179000
X558000Y1172000
X544000Y1206000
X558000Y1222000
X557000Y1263000
X614680Y1097280
X614000Y1085000
X642620Y1074420
X652780Y1071880
X690880Y1082040
X741000Y1102000
X725000Y1200000
X622300Y1043940
X611294Y1044596
X454660Y1043940
X457200Y1013460
X462280Y904240
X405000Y927000
X294000Y955000
X245110Y913130
X237215Y906780
X229870Y913130
X214215Y913545
X108000Y924000
Y936667
Y949333
Y962000
X96000Y973000
X84000
X94000Y914000
Y886000
X85000Y892000
X103000Y1027000
X269000Y1036000
X272000Y1113000
X286000Y1186000
X326000Y1202000
X336000Y1264000
X351000Y1266000
X397000Y1257000
X393000Y1218000
X409000Y1192000
X441000Y1221000
X379000Y1134000
X218000Y1190000
X179000Y1163000
X213000Y1257000
X72000Y973000
X60000
X48000
X36000
X24000
X14000Y969000
X7000Y962000
X31000Y912000
X42000
X31000Y899000
X62000Y904000
Y892000
X74000
X70000Y914000
Y924000
X82000Y914000
X185000Y1295000
X213000Y1303000
X220000Y1278000
X288000Y1300000
X289000Y1315000
X303000Y1296000
X333000Y1310000
X342000Y1285000
X346000Y1352000
X329000Y1389000
X312000Y1422000
X395377Y1409377
X416762Y1383127
X412000Y1322000
X410000Y1307000
X425000Y1303000
X455238Y1309873
X492923Y1328923
X551000Y1322000
X550523Y1303523
X568923Y1328923
X587000Y1338000
X593000Y1316000
X601000Y1292000
X620000Y1300000
X649000Y1286000
X688750Y1283750
X704000Y1324000
X710000Y1345000
X709713Y1388000
X706000Y1408000
X683223Y1401223
X682434Y1384434
X684000Y1374000
X665000Y1353000
X661000Y1338000
X676000Y1335000
X684000Y1425000
X753000Y1397000
X763000Y1392000
X778000Y1367000
X793000Y1363000
Y1420000
X590238Y1394873
X886000Y1318000
X987000Y1289000
T02
X910000Y270000
X828000Y438000
X648200Y369680
X409000Y252000
X632460Y598170
X685000Y618000
X514500Y725500
X868877Y849877
X893000Y831000
X939127Y883127
X983000Y902000
X868877Y912877
X19873Y942873
T03
X763270Y382524
Y395224
Y407924
X777848Y473556
Y549556
T04
X367030Y520700
Y546100
Y571500
Y596900
T05
X508998Y1175601
Y1201001
Y1226401
Y1251801
T06
X44999Y865797
X884598Y942999
X909998
X935398
X960798
X859199
X791274Y949152
X756274
X721274
X686274
X651274
X616274
Y995152
X651274
X686274
X721274
X756274
X791274
X44999Y891197
X439002Y1371001
Y1396401
X464402
Y1371001
X489802
X515201
Y1396401
X489802Y1396401
X540602
X566002
Y1371001
X540602
T07
X934960Y1128480
X964960
Y1158480
X934960
Y1188480
X964960
Y1218480
X934960
T08
X40000Y40000
X960000Y160000
X210000Y1132000
X40000Y1018500
X285000Y1392000
X825000Y1392000
T09
X974760Y1231280
T10
X633775Y926852
M30
