G04*
G04 #@! TF.GenerationSoftware,Altium Limited,Altium Designer,23.1.1 (15)*
G04*
G04 Layer_Color=2752767*
%FSLAX44Y44*%
%MOMM*%
G71*
G04*
G04 #@! TF.SameCoordinates,942C716A-FCC5-4316-BD2A-8FEC41E514F9*
G04*
G04*
G04 #@! TF.FilePolarity,Positive*
G04*
G01*
G75*
%ADD13C,0.1016*%
%ADD17C,0.1270*%
%ADD163C,0.1693*%
D13*
X688048Y618000D02*
G03*
X688048Y618000I-3048J0D01*
G01*
X651248Y369680D02*
G03*
X651248Y369680I-3048J0D01*
G01*
X635508Y598170D02*
G03*
X635508Y598170I-3048J0D01*
G01*
X517548Y725500D02*
G03*
X517548Y725500I-3048J0D01*
G01*
X412048Y252000D02*
G03*
X412048Y252000I-3048J0D01*
G01*
X913048Y270000D02*
G03*
X913048Y270000I-3048J0D01*
G01*
X22921Y942873D02*
G03*
X22921Y942873I-3048J0D01*
G01*
X831048Y438000D02*
G03*
X831048Y438000I-3048J0D01*
G01*
X896048Y831000D02*
G03*
X896048Y831000I-3048J0D01*
G01*
X871925Y912877D02*
G03*
X871925Y912877I-3048J0D01*
G01*
X986048Y902000D02*
G03*
X986048Y902000I-3048J0D01*
G01*
X871925Y849877D02*
G03*
X871925Y849877I-3048J0D01*
G01*
X942175Y883127D02*
G03*
X942175Y883127I-3048J0D01*
G01*
D17*
X777848Y544476D02*
X772767Y554636D01*
X782927D01*
X777848Y544476D01*
Y468476D02*
X772767Y478636D01*
X782927D01*
X777848Y468476D01*
X763270Y402844D02*
X758190Y413004D01*
X768350D01*
X763270Y402844D01*
Y390144D02*
X758190Y400304D01*
X768350D01*
X763270Y390144D01*
Y377444D02*
X758190Y387604D01*
X768350D01*
X763270Y377444D01*
X964960Y1153400D02*
X959880Y1163560D01*
X970040D01*
X964960Y1153400D01*
Y1155432D02*
X961912Y1161528D01*
X968008D01*
X964960Y1155432D01*
Y1123400D02*
X959880Y1133560D01*
X970040D01*
X964960Y1123400D01*
Y1125432D02*
X961912Y1131528D01*
X968008D01*
X964960Y1125432D01*
X934960Y1123400D02*
X929880Y1133560D01*
X940040D01*
X934960Y1123400D01*
Y1125432D02*
X931912Y1131528D01*
X938008D01*
X934960Y1125432D01*
Y1153400D02*
X929880Y1163560D01*
X940040D01*
X934960Y1153400D01*
Y1155432D02*
X931912Y1161528D01*
X938008D01*
X934960Y1155432D01*
Y1183400D02*
X929880Y1193560D01*
X940040D01*
X934960Y1183400D01*
Y1185432D02*
X931912Y1191528D01*
X938008D01*
X934960Y1185432D01*
Y1213400D02*
X929880Y1223560D01*
X940040D01*
X934960Y1213400D01*
Y1215432D02*
X931912Y1221528D01*
X938008D01*
X934960Y1215432D01*
X964960Y1213400D02*
X959880Y1223560D01*
X970040D01*
X964960Y1213400D01*
Y1215432D02*
X961912Y1221528D01*
X968008D01*
X964960Y1215432D01*
Y1183400D02*
X959880Y1193560D01*
X970040D01*
X964960Y1183400D01*
Y1185432D02*
X961912Y1191528D01*
X968008D01*
X964960Y1185432D01*
X969680Y1231280D02*
X974760Y1236360D01*
X979840Y1231280D01*
X974760Y1226200D01*
X969680Y1231280D01*
X960798Y937919D02*
X963338Y940459D01*
X965879D01*
X963338Y942999D01*
X965879Y945539D01*
X963338D01*
X960798Y948079D01*
X958259Y945539D01*
X955719D01*
X958259Y942999D01*
X955719Y940459D01*
X958259D01*
X960798Y937919D01*
X935398D02*
X937939Y940459D01*
X940479D01*
X937939Y942999D01*
X940479Y945539D01*
X937939D01*
X935398Y948079D01*
X932859Y945539D01*
X930319D01*
X932859Y942999D01*
X930319Y940459D01*
X932859D01*
X935398Y937919D01*
X909998D02*
X912538Y940459D01*
X915078D01*
X912538Y942999D01*
X915078Y945539D01*
X912538D01*
X909998Y948079D01*
X907458Y945539D01*
X904918D01*
X907458Y942999D01*
X904918Y940459D01*
X907458D01*
X909998Y937919D01*
X884598D02*
X887139Y940459D01*
X889678D01*
X887139Y942999D01*
X889678Y945539D01*
X887139D01*
X884598Y948079D01*
X882058Y945539D01*
X879519D01*
X882058Y942999D01*
X879519Y940459D01*
X882058D01*
X884598Y937919D01*
X859199D02*
X861739Y940459D01*
X864278D01*
X861739Y942999D01*
X864278Y945539D01*
X861739D01*
X859199Y948079D01*
X856658Y945539D01*
X854118D01*
X856658Y942999D01*
X854118Y940459D01*
X856658D01*
X859199Y937919D01*
X361950Y515620D02*
X364490D01*
X367030Y518160D01*
X369570Y515620D01*
X372110D01*
Y518160D01*
X369570Y520700D01*
X372110Y523240D01*
Y525780D01*
X369570D01*
X367030Y523240D01*
X364490Y525780D01*
X361950D01*
Y523240D01*
X364490Y520700D01*
X361950Y518160D01*
Y515620D01*
Y541020D02*
X364490D01*
X367030Y543560D01*
X369570Y541020D01*
X372110D01*
Y543560D01*
X369570Y546100D01*
X372110Y548640D01*
Y551180D01*
X369570D01*
X367030Y548640D01*
X364490Y551180D01*
X361950D01*
Y548640D01*
X364490Y546100D01*
X361950Y543560D01*
Y541020D01*
Y566420D02*
X364490D01*
X367030Y568960D01*
X369570Y566420D01*
X372110D01*
Y568960D01*
X369570Y571500D01*
X372110Y574040D01*
Y576580D01*
X369570D01*
X367030Y574040D01*
X364490Y576580D01*
X361950D01*
Y574040D01*
X364490Y571500D01*
X361950Y568960D01*
Y566420D01*
Y591820D02*
X364490D01*
X367030Y594360D01*
X369570Y591820D01*
X372110D01*
Y594360D01*
X369570Y596900D01*
X372110Y599440D01*
Y601980D01*
X369570D01*
X367030Y599440D01*
X364490Y601980D01*
X361950D01*
Y599440D01*
X364490Y596900D01*
X361950Y594360D01*
Y591820D01*
X628695Y921772D02*
X631235Y926852D01*
X628695Y931932D01*
X633775Y929392D01*
X638855Y931932D01*
X636315Y926852D01*
X638855Y921772D01*
X633775Y924312D01*
X628695Y921772D01*
X791274Y944072D02*
X793814Y946612D01*
X796354D01*
X793814Y949152D01*
X796354Y951692D01*
X793814D01*
X791274Y954232D01*
X788734Y951692D01*
X786194D01*
X788734Y949152D01*
X786194Y946612D01*
X788734D01*
X791274Y944072D01*
X756274D02*
X758814Y946612D01*
X761354D01*
X758814Y949152D01*
X761354Y951692D01*
X758814D01*
X756274Y954232D01*
X753734Y951692D01*
X751194D01*
X753734Y949152D01*
X751194Y946612D01*
X753734D01*
X756274Y944072D01*
X721274D02*
X723814Y946612D01*
X726354D01*
X723814Y949152D01*
X726354Y951692D01*
X723814D01*
X721274Y954232D01*
X718734Y951692D01*
X716194D01*
X718734Y949152D01*
X716194Y946612D01*
X718734D01*
X721274Y944072D01*
X686274D02*
X688814Y946612D01*
X691354D01*
X688814Y949152D01*
X691354Y951692D01*
X688814D01*
X686274Y954232D01*
X683734Y951692D01*
X681194D01*
X683734Y949152D01*
X681194Y946612D01*
X683734D01*
X686274Y944072D01*
X651274D02*
X653814Y946612D01*
X656354D01*
X653814Y949152D01*
X656354Y951692D01*
X653814D01*
X651274Y954232D01*
X648734Y951692D01*
X646194D01*
X648734Y949152D01*
X646194Y946612D01*
X648734D01*
X651274Y944072D01*
X616274D02*
X618814Y946612D01*
X621354D01*
X618814Y949152D01*
X621354Y951692D01*
X618814D01*
X616274Y954232D01*
X613734Y951692D01*
X611194D01*
X613734Y949152D01*
X611194Y946612D01*
X613734D01*
X616274Y944072D01*
X791274Y990072D02*
X793814Y992612D01*
X796354D01*
X793814Y995152D01*
X796354Y997692D01*
X793814D01*
X791274Y1000232D01*
X788734Y997692D01*
X786194D01*
X788734Y995152D01*
X786194Y992612D01*
X788734D01*
X791274Y990072D01*
X756274D02*
X758814Y992612D01*
X761354D01*
X758814Y995152D01*
X761354Y997692D01*
X758814D01*
X756274Y1000232D01*
X753734Y997692D01*
X751194D01*
X753734Y995152D01*
X751194Y992612D01*
X753734D01*
X756274Y990072D01*
X721274D02*
X723814Y992612D01*
X726354D01*
X723814Y995152D01*
X726354Y997692D01*
X723814D01*
X721274Y1000232D01*
X718734Y997692D01*
X716194D01*
X718734Y995152D01*
X716194Y992612D01*
X718734D01*
X721274Y990072D01*
X686274D02*
X688814Y992612D01*
X691354D01*
X688814Y995152D01*
X691354Y997692D01*
X688814D01*
X686274Y1000232D01*
X683734Y997692D01*
X681194D01*
X683734Y995152D01*
X681194Y992612D01*
X683734D01*
X686274Y990072D01*
X651274D02*
X653814Y992612D01*
X656354D01*
X653814Y995152D01*
X656354Y997692D01*
X653814D01*
X651274Y1000232D01*
X648734Y997692D01*
X646194D01*
X648734Y995152D01*
X646194Y992612D01*
X648734D01*
X651274Y990072D01*
X616274D02*
X618814Y992612D01*
X621354D01*
X618814Y995152D01*
X621354Y997692D01*
X618814D01*
X616274Y1000232D01*
X613734Y997692D01*
X611194D01*
X613734Y995152D01*
X611194Y992612D01*
X613734D01*
X616274Y990072D01*
X439002Y1391321D02*
X441542Y1393861D01*
X444082D01*
X441542Y1396401D01*
X444082Y1398941D01*
X441542D01*
X439002Y1401481D01*
X436462Y1398941D01*
X433922D01*
X436462Y1396401D01*
X433922Y1393861D01*
X436462D01*
X439002Y1391321D01*
X464402D02*
X466942Y1393861D01*
X469482D01*
X466942Y1396401D01*
X469482Y1398941D01*
X466942D01*
X464402Y1401481D01*
X461862Y1398941D01*
X459322D01*
X461862Y1396401D01*
X459322Y1393861D01*
X461862D01*
X464402Y1391321D01*
X489802Y1365921D02*
X492342Y1368461D01*
X494882D01*
X492342Y1371001D01*
X494882Y1373541D01*
X492342D01*
X489802Y1376081D01*
X487262Y1373541D01*
X484722D01*
X487262Y1371001D01*
X484722Y1368461D01*
X487262D01*
X489802Y1365921D01*
X515201D02*
X517742Y1368461D01*
X520281D01*
X517742Y1371001D01*
X520281Y1373541D01*
X517742D01*
X515201Y1376081D01*
X512662Y1373541D01*
X510121D01*
X512662Y1371001D01*
X510121Y1368461D01*
X512662D01*
X515201Y1365921D01*
X489802Y1391321D02*
X492342Y1393861D01*
X494882D01*
X492342Y1396401D01*
X494882Y1398941D01*
X492342D01*
X489802Y1401481D01*
X487262Y1398941D01*
X484722D01*
X487262Y1396401D01*
X484722Y1393861D01*
X487262D01*
X489802Y1391321D01*
X515201Y1391321D02*
X517742Y1393861D01*
X520281D01*
X517742Y1396401D01*
X520281Y1398941D01*
X517742D01*
X515201Y1401481D01*
X512662Y1398941D01*
X510121D01*
X512662Y1396401D01*
X510121Y1393861D01*
X512662D01*
X515201Y1391321D01*
X540602Y1391321D02*
X543142Y1393861D01*
X545682D01*
X543142Y1396401D01*
X545682Y1398941D01*
X543142D01*
X540602Y1401481D01*
X538062Y1398941D01*
X535522D01*
X538062Y1396401D01*
X535522Y1393861D01*
X538062D01*
X540602Y1391321D01*
X566002D02*
X568542Y1393861D01*
X571082D01*
X568542Y1396401D01*
X571082Y1398941D01*
X568542D01*
X566002Y1401481D01*
X563462Y1398941D01*
X560922D01*
X563462Y1396401D01*
X560922Y1393861D01*
X563462D01*
X566002Y1391321D01*
X439002Y1365921D02*
X441542Y1368461D01*
X444082D01*
X441542Y1371001D01*
X444082Y1373541D01*
X441542D01*
X439002Y1376081D01*
X436462Y1373541D01*
X433922D01*
X436462Y1371001D01*
X433922Y1368461D01*
X436462D01*
X439002Y1365921D01*
X464402D02*
X466942Y1368461D01*
X469482D01*
X466942Y1371001D01*
X469482Y1373541D01*
X466942D01*
X464402Y1376081D01*
X461862Y1373541D01*
X459322D01*
X461862Y1371001D01*
X459322Y1368461D01*
X461862D01*
X464402Y1365921D01*
X540602D02*
X543142Y1368461D01*
X545682D01*
X543142Y1371001D01*
X545682Y1373541D01*
X543142D01*
X540602Y1376081D01*
X538062Y1373541D01*
X535522D01*
X538062Y1371001D01*
X535522Y1368461D01*
X538062D01*
X540602Y1365921D01*
X566002D02*
X568542Y1368461D01*
X571082D01*
X568542Y1371001D01*
X571082Y1373541D01*
X568542D01*
X566002Y1376081D01*
X563462Y1373541D01*
X560922D01*
X563462Y1371001D01*
X560922Y1368461D01*
X563462D01*
X566002Y1365921D01*
X506458Y1249261D02*
Y1246721D01*
X511538D01*
Y1249261D01*
X514078D01*
Y1254341D01*
X511538D01*
Y1256881D01*
X506458D01*
Y1254341D01*
X503918D01*
Y1249261D01*
X506458D01*
Y1223861D02*
Y1221321D01*
X511538D01*
Y1223861D01*
X514078D01*
Y1228941D01*
X511538D01*
Y1231481D01*
X506458D01*
Y1228941D01*
X503918D01*
Y1223861D01*
X506458D01*
Y1198461D02*
Y1195921D01*
X511538D01*
Y1198461D01*
X514078D01*
Y1203541D01*
X511538D01*
Y1206081D01*
X506458D01*
Y1203541D01*
X503918D01*
Y1198461D01*
X506458D01*
Y1173061D02*
Y1170521D01*
X511538D01*
Y1173061D01*
X514078D01*
Y1178141D01*
X511538D01*
Y1180681D01*
X506458D01*
Y1178141D01*
X503918D01*
Y1173061D01*
X506458D01*
X34920Y34920D02*
Y45080D01*
X45080D01*
Y34920D01*
X34920D01*
X34920Y1013420D02*
Y1023580D01*
X45080D01*
Y1013420D01*
X34920D01*
X204920Y1126920D02*
Y1137080D01*
X215080D01*
Y1126920D01*
X204920D01*
X279920Y1386920D02*
Y1397080D01*
X290080D01*
Y1386920D01*
X279920D01*
X954920Y154920D02*
Y165080D01*
X965080D01*
Y154920D01*
X954920D01*
X819920Y1386920D02*
Y1397080D01*
X830080D01*
Y1386920D01*
X819920D01*
X44999Y886117D02*
X47539Y888657D01*
X50079D01*
X47539Y891197D01*
X50079Y893737D01*
X47539D01*
X44999Y896277D01*
X42459Y893737D01*
X39919D01*
X42459Y891197D01*
X39919Y888657D01*
X42459D01*
X44999Y886117D01*
Y860717D02*
X47539Y863257D01*
X50079D01*
X47539Y865797D01*
X50079Y868337D01*
X47539D01*
X44999Y870877D01*
X42459Y868337D01*
X39919D01*
X42459Y865797D01*
X39919Y863257D01*
X42459D01*
X44999Y860717D01*
X256540Y266700D02*
Y276860D01*
X266700D01*
Y266700D01*
X256540D01*
X258572Y268732D02*
Y274828D01*
X264668D01*
Y268732D01*
X258572D01*
X246380Y314960D02*
Y325120D01*
X256540D01*
Y314960D01*
X246380D01*
X248412Y316992D02*
Y323088D01*
X254508D01*
Y316992D01*
X248412D01*
X279147Y274067D02*
Y284227D01*
X289307D01*
Y274067D01*
X279147D01*
X281179Y276099D02*
Y282195D01*
X287275D01*
Y276099D01*
X281179D01*
X284480Y365760D02*
Y375920D01*
X294640D01*
Y365760D01*
X284480D01*
X286512Y367792D02*
Y373888D01*
X292608D01*
Y367792D01*
X286512D01*
X271780Y386080D02*
Y396240D01*
X281940D01*
Y386080D01*
X271780D01*
X273812Y388112D02*
Y394208D01*
X279908D01*
Y388112D01*
X273812D01*
X426720Y426720D02*
Y436880D01*
X436880D01*
Y426720D01*
X426720D01*
X428752Y428752D02*
Y434848D01*
X434848D01*
Y428752D01*
X428752D01*
X530860Y462280D02*
Y472440D01*
X541020D01*
Y462280D01*
X530860D01*
X532892Y464312D02*
Y470408D01*
X538988D01*
Y464312D01*
X532892D01*
X292100Y378396D02*
Y388556D01*
X302260D01*
Y378396D01*
X292100D01*
X294132Y380428D02*
Y386524D01*
X300228D01*
Y380428D01*
X294132D01*
X314151Y392670D02*
Y402830D01*
X324311D01*
Y392670D01*
X314151D01*
X316183Y394702D02*
Y400798D01*
X322279D01*
Y394702D01*
X316183D01*
X55740Y403740D02*
Y413900D01*
X65900D01*
Y403740D01*
X55740D01*
X57772Y405772D02*
Y411868D01*
X63868D01*
Y405772D01*
X57772D01*
X32840Y406840D02*
Y417000D01*
X43000D01*
Y406840D01*
X32840D01*
X34872Y408872D02*
Y414968D01*
X40968D01*
Y408872D01*
X34872D01*
X205740Y289560D02*
Y299720D01*
X215900D01*
Y289560D01*
X205740D01*
X207772Y291592D02*
Y297688D01*
X213868D01*
Y291592D01*
X207772D01*
X356591Y295060D02*
Y305220D01*
X366751D01*
Y295060D01*
X356591D01*
X358623Y297092D02*
Y303188D01*
X364719D01*
Y297092D01*
X358623D01*
X739902Y650748D02*
Y660908D01*
X750062D01*
Y650748D01*
X739902D01*
X741934Y652780D02*
Y658876D01*
X748030D01*
Y652780D01*
X741934D01*
X731012Y639064D02*
Y649224D01*
X741172D01*
Y639064D01*
X731012D01*
X733044Y641096D02*
Y647192D01*
X739140D01*
Y641096D01*
X733044D01*
X800730Y720466D02*
Y730626D01*
X810890D01*
Y720466D01*
X800730D01*
X802762Y722498D02*
Y728594D01*
X808858D01*
Y722498D01*
X802762D01*
X775970Y605282D02*
Y615442D01*
X786130D01*
Y605282D01*
X775970D01*
X778002Y607314D02*
Y613410D01*
X784098D01*
Y607314D01*
X778002D01*
X656590Y702698D02*
Y712858D01*
X666750D01*
Y702698D01*
X656590D01*
X658622Y704730D02*
Y710826D01*
X664718D01*
Y704730D01*
X658622D01*
X656590Y695198D02*
Y705358D01*
X666750D01*
Y695198D01*
X656590D01*
X658622Y697230D02*
Y703326D01*
X664718D01*
Y697230D01*
X658622D01*
X477670Y615950D02*
Y626110D01*
X487830D01*
Y615950D01*
X477670D01*
X479702Y617982D02*
Y624078D01*
X485798D01*
Y617982D01*
X479702D01*
X485170Y615950D02*
Y626110D01*
X495330D01*
Y615950D01*
X485170D01*
X487202Y617982D02*
Y624078D01*
X493298D01*
Y617982D01*
X487202D01*
X519790Y670920D02*
Y681080D01*
X529950D01*
Y670920D01*
X519790D01*
X521822Y672952D02*
Y679048D01*
X527918D01*
Y672952D01*
X521822D01*
X515620Y679450D02*
Y689610D01*
X525780D01*
Y679450D01*
X515620D01*
X517652Y681482D02*
Y687578D01*
X523748D01*
Y681482D01*
X517652D01*
X792226Y708726D02*
Y718886D01*
X802386D01*
Y708726D01*
X792226D01*
X794258Y710758D02*
Y716854D01*
X800354D01*
Y710758D01*
X794258D01*
X748030Y680466D02*
Y690626D01*
X758190D01*
Y680466D01*
X748030D01*
X750062Y682498D02*
Y688594D01*
X756158D01*
Y682498D01*
X750062D01*
X737870Y613918D02*
Y624078D01*
X748030D01*
Y613918D01*
X737870D01*
X739902Y615950D02*
Y622046D01*
X745998D01*
Y615950D01*
X739902D01*
X762254Y687070D02*
Y697230D01*
X772414D01*
Y687070D01*
X762254D01*
X764286Y689102D02*
Y695198D01*
X770382D01*
Y689102D01*
X764286D01*
X788670Y656082D02*
Y666242D01*
X798830D01*
Y656082D01*
X788670D01*
X790702Y658114D02*
Y664210D01*
X796798D01*
Y658114D01*
X790702D01*
X705320Y667766D02*
Y677926D01*
X715480D01*
Y667766D01*
X705320D01*
X707352Y669798D02*
Y675894D01*
X713448D01*
Y669798D01*
X707352D01*
X688594Y657352D02*
Y667512D01*
X698754D01*
Y657352D01*
X688594D01*
X690626Y659384D02*
Y665480D01*
X696722D01*
Y659384D01*
X690626D01*
X704088Y627888D02*
Y638048D01*
X714248D01*
Y627888D01*
X704088D01*
X706120Y629920D02*
Y636016D01*
X712216D01*
Y629920D01*
X706120D01*
X385064Y478028D02*
Y488188D01*
X395224D01*
Y478028D01*
X385064D01*
X387096Y480060D02*
Y486156D01*
X393192D01*
Y480060D01*
X387096D01*
X363982Y464312D02*
Y474472D01*
X374142D01*
Y464312D01*
X363982D01*
X366014Y466344D02*
Y472440D01*
X372110D01*
Y466344D01*
X366014D01*
X386930Y382270D02*
Y392430D01*
X397090D01*
Y382270D01*
X386930D01*
X388962Y384302D02*
Y390398D01*
X395058D01*
Y384302D01*
X388962D01*
X436118Y402082D02*
Y412242D01*
X446278D01*
Y402082D01*
X436118D01*
X438150Y404114D02*
Y410210D01*
X444246D01*
Y404114D01*
X438150D01*
X431966Y420536D02*
Y430696D01*
X442126D01*
Y420536D01*
X431966D01*
X433998Y422568D02*
Y428664D01*
X440094D01*
Y422568D01*
X433998D01*
X551180Y430530D02*
Y440690D01*
X561340D01*
Y430530D01*
X551180D01*
X553212Y432562D02*
Y438658D01*
X559308D01*
Y432562D01*
X553212D01*
X444500Y411226D02*
Y421386D01*
X454660D01*
Y411226D01*
X444500D01*
X446532Y413258D02*
Y419354D01*
X452628D01*
Y413258D01*
X446532D01*
X529082Y473980D02*
Y484140D01*
X539242D01*
Y473980D01*
X529082D01*
X531114Y476012D02*
Y482108D01*
X537210D01*
Y476012D01*
X531114D01*
X555498Y560832D02*
Y570992D01*
X565658D01*
Y560832D01*
X555498D01*
X557530Y562864D02*
Y568960D01*
X563626D01*
Y562864D01*
X557530D01*
X545846Y563880D02*
Y574040D01*
X556006D01*
Y563880D01*
X545846D01*
X547878Y565912D02*
Y572008D01*
X553974D01*
Y565912D01*
X547878D01*
X541020Y570484D02*
Y580644D01*
X551180D01*
Y570484D01*
X541020D01*
X543052Y572516D02*
Y578612D01*
X549148D01*
Y572516D01*
X543052D01*
X410210Y429260D02*
Y439420D01*
X420370D01*
Y429260D01*
X410210D01*
X412242Y431292D02*
Y437388D01*
X418338D01*
Y431292D01*
X412242D01*
X568452Y647700D02*
Y657860D01*
X578612D01*
Y647700D01*
X568452D01*
X570484Y649732D02*
Y655828D01*
X576580D01*
Y649732D01*
X570484D01*
X785876Y526034D02*
Y536194D01*
X796036D01*
Y526034D01*
X785876D01*
X787908Y528066D02*
Y534162D01*
X794004D01*
Y528066D01*
X787908D01*
X599948Y450850D02*
Y461010D01*
X610108D01*
Y450850D01*
X599948D01*
X601980Y452882D02*
Y458978D01*
X608076D01*
Y452882D01*
X601980D01*
X262128Y772414D02*
Y782574D01*
X272288D01*
Y772414D01*
X262128D01*
X264160Y774446D02*
Y780542D01*
X270256D01*
Y774446D01*
X264160D01*
X219949Y873521D02*
Y883681D01*
X230109D01*
Y873521D01*
X219949D01*
X221981Y875553D02*
Y881649D01*
X228077D01*
Y875553D01*
X221981D01*
X224790Y790194D02*
Y800354D01*
X234950D01*
Y790194D01*
X224790D01*
X226822Y792226D02*
Y798322D01*
X232918D01*
Y792226D01*
X226822D01*
X615950Y547370D02*
Y557530D01*
X626110D01*
Y547370D01*
X615950D01*
X617982Y549402D02*
Y555498D01*
X624078D01*
Y549402D01*
X617982D01*
X496316Y618490D02*
Y628650D01*
X506476D01*
Y618490D01*
X496316D01*
X498348Y620522D02*
Y626618D01*
X504444D01*
Y620522D01*
X498348D01*
X590296Y399542D02*
Y409702D01*
X600456D01*
Y399542D01*
X590296D01*
X592328Y401574D02*
Y407670D01*
X598424D01*
Y401574D01*
X592328D01*
X608920Y1079920D02*
Y1090080D01*
X619080D01*
Y1079920D01*
X608920D01*
X610952Y1081952D02*
Y1088048D01*
X617048D01*
Y1081952D01*
X610952D01*
X604269Y625351D02*
Y635511D01*
X614429D01*
Y625351D01*
X604269D01*
X606301Y627383D02*
Y633479D01*
X612397D01*
Y627383D01*
X606301D01*
X581350Y636976D02*
Y647136D01*
X591510D01*
Y636976D01*
X581350D01*
X583382Y639008D02*
Y645104D01*
X589478D01*
Y639008D01*
X583382D01*
X612140Y614934D02*
Y625094D01*
X622300D01*
Y614934D01*
X612140D01*
X614172Y616966D02*
Y623062D01*
X620268D01*
Y616966D01*
X614172D01*
X268478Y360426D02*
Y370586D01*
X278638D01*
Y360426D01*
X268478D01*
X270510Y362458D02*
Y368554D01*
X276606D01*
Y362458D01*
X270510D01*
X462280Y736600D02*
Y746760D01*
X472440D01*
Y736600D01*
X462280D01*
X464312Y738632D02*
Y744728D01*
X470408D01*
Y738632D01*
X464312D01*
X470920Y768920D02*
Y779080D01*
X481080D01*
Y768920D01*
X470920D01*
X472952Y770952D02*
Y777048D01*
X479048D01*
Y770952D01*
X472952D01*
X764540Y822960D02*
Y833120D01*
X774700D01*
Y822960D01*
X764540D01*
X766572Y824992D02*
Y831088D01*
X772668D01*
Y824992D01*
X766572D01*
X662940Y835660D02*
Y845820D01*
X673100D01*
Y835660D01*
X662940D01*
X664972Y837692D02*
Y843788D01*
X671068D01*
Y837692D01*
X664972D01*
X632460Y822960D02*
Y833120D01*
X642620D01*
Y822960D01*
X632460D01*
X634492Y824992D02*
Y831088D01*
X640588D01*
Y824992D01*
X634492D01*
X647192Y644906D02*
Y655066D01*
X657352D01*
Y644906D01*
X647192D01*
X649224Y646938D02*
Y653034D01*
X655320D01*
Y646938D01*
X649224D01*
X850900Y683006D02*
Y693166D01*
X861060D01*
Y683006D01*
X850900D01*
X852932Y685038D02*
Y691134D01*
X859028D01*
Y685038D01*
X852932D01*
X685800Y345440D02*
Y355600D01*
X695960D01*
Y345440D01*
X685800D01*
X687832Y347472D02*
Y353568D01*
X693928D01*
Y347472D01*
X687832D01*
X325120Y317500D02*
Y327660D01*
X335280D01*
Y317500D01*
X325120D01*
X327152Y319532D02*
Y325628D01*
X333248D01*
Y319532D01*
X327152D01*
X354920Y373920D02*
Y384080D01*
X365080D01*
Y373920D01*
X354920D01*
X356952Y375952D02*
Y382048D01*
X363048D01*
Y375952D01*
X356952D01*
X449580Y1038860D02*
Y1049020D01*
X459740D01*
Y1038860D01*
X449580D01*
X451612Y1040892D02*
Y1046988D01*
X457708D01*
Y1040892D01*
X451612D01*
X668020Y787400D02*
Y797560D01*
X678180D01*
Y787400D01*
X668020D01*
X670052Y789432D02*
Y795528D01*
X676148D01*
Y789432D01*
X670052D01*
X670560Y779780D02*
Y789940D01*
X680720D01*
Y779780D01*
X670560D01*
X672592Y781812D02*
Y787908D01*
X678688D01*
Y781812D01*
X672592D01*
X657860Y497840D02*
Y508000D01*
X668020D01*
Y497840D01*
X657860D01*
X659892Y499872D02*
Y505968D01*
X665988D01*
Y499872D01*
X659892D01*
X457200Y899160D02*
Y909320D01*
X467360D01*
Y899160D01*
X457200D01*
X459232Y901192D02*
Y907288D01*
X465328D01*
Y901192D01*
X459232D01*
X606214Y1039517D02*
Y1049677D01*
X616374D01*
Y1039517D01*
X606214D01*
X608246Y1041548D02*
Y1047645D01*
X614342D01*
Y1041548D01*
X608246D01*
X657860Y482600D02*
Y492760D01*
X668020D01*
Y482600D01*
X657860D01*
X659892Y484632D02*
Y490728D01*
X665988D01*
Y484632D01*
X659892D01*
X467360Y633730D02*
Y643890D01*
X477520D01*
Y633730D01*
X467360D01*
X469392Y635762D02*
Y641858D01*
X475488D01*
Y635762D01*
X469392D01*
X464820Y622300D02*
Y632460D01*
X474980D01*
Y622300D01*
X464820D01*
X466852Y624332D02*
Y630428D01*
X472948D01*
Y624332D01*
X466852D01*
X637540Y1069340D02*
Y1079500D01*
X647700D01*
Y1069340D01*
X637540D01*
X639572Y1071372D02*
Y1077468D01*
X645668D01*
Y1071372D01*
X639572D01*
X500380Y510540D02*
Y520700D01*
X510540D01*
Y510540D01*
X500380D01*
X502412Y512572D02*
Y518668D01*
X508508D01*
Y512572D01*
X502412D01*
X483791Y561261D02*
Y571421D01*
X493951D01*
Y561261D01*
X483791D01*
X485823Y563293D02*
Y569389D01*
X491919D01*
Y563293D01*
X485823D01*
X485520Y872870D02*
Y883030D01*
X495680D01*
Y872870D01*
X485520D01*
X487552Y874902D02*
Y880998D01*
X493648D01*
Y874902D01*
X487552D01*
X617220Y1038860D02*
Y1049020D01*
X627380D01*
Y1038860D01*
X617220D01*
X619252Y1040892D02*
Y1046988D01*
X625348D01*
Y1040892D01*
X619252D01*
X452120Y1008380D02*
Y1018540D01*
X462280D01*
Y1008380D01*
X452120D01*
X454152Y1010412D02*
Y1016508D01*
X460248D01*
Y1010412D01*
X454152D01*
X814397Y1049920D02*
Y1060080D01*
X824557D01*
Y1049920D01*
X814397D01*
X816429Y1051952D02*
Y1058048D01*
X822525D01*
Y1051952D01*
X816429D01*
X685800Y1076960D02*
Y1087120D01*
X695960D01*
Y1076960D01*
X685800D01*
X687832Y1078992D02*
Y1085088D01*
X693928D01*
Y1078992D01*
X687832D01*
X647700Y1066800D02*
Y1076960D01*
X657860D01*
Y1066800D01*
X647700D01*
X649732Y1068832D02*
Y1074928D01*
X655828D01*
Y1068832D01*
X649732D01*
X450850Y618490D02*
Y628650D01*
X461010D01*
Y618490D01*
X450850D01*
X452882Y620522D02*
Y626618D01*
X458978D01*
Y620522D01*
X452882D01*
X528320Y383540D02*
Y393700D01*
X538480D01*
Y383540D01*
X528320D01*
X530352Y385572D02*
Y391668D01*
X536448D01*
Y385572D01*
X530352D01*
X543560Y383540D02*
Y393700D01*
X553720D01*
Y383540D01*
X543560D01*
X545592Y385572D02*
Y391668D01*
X551688D01*
Y385572D01*
X545592D01*
X668020Y414020D02*
Y424180D01*
X678180D01*
Y414020D01*
X668020D01*
X670052Y416052D02*
Y422148D01*
X676148D01*
Y416052D01*
X670052D01*
X461010Y362600D02*
Y372760D01*
X471170D01*
Y362600D01*
X461010D01*
X463042Y364632D02*
Y370728D01*
X469138D01*
Y364632D01*
X463042D01*
X669920Y364920D02*
Y375080D01*
X680080D01*
Y364920D01*
X669920D01*
X671952Y366952D02*
Y373048D01*
X678048D01*
Y366952D01*
X671952D01*
X627920Y369920D02*
Y380080D01*
X638080D01*
Y369920D01*
X627920D01*
X629952Y371952D02*
Y378048D01*
X636048D01*
Y371952D01*
X629952D01*
X193040Y294640D02*
Y304800D01*
X203200D01*
Y294640D01*
X193040D01*
X195072Y296672D02*
Y302768D01*
X201168D01*
Y296672D01*
X195072D01*
X404495Y681355D02*
Y691515D01*
X414655D01*
Y681355D01*
X404495D01*
X406527Y683387D02*
Y689483D01*
X412623D01*
Y683387D01*
X406527D01*
X513080Y656590D02*
Y666750D01*
X523240D01*
Y656590D01*
X513080D01*
X515112Y658622D02*
Y664718D01*
X521208D01*
Y658622D01*
X515112D01*
X240030Y908050D02*
Y918210D01*
X250190D01*
Y908050D01*
X240030D01*
X242062Y910082D02*
Y916178D01*
X248158D01*
Y910082D01*
X242062D01*
X232135Y901700D02*
Y911860D01*
X242295D01*
Y901700D01*
X232135D01*
X234167Y903732D02*
Y909828D01*
X240263D01*
Y903732D01*
X234167D01*
X98920Y161920D02*
Y172080D01*
X109080D01*
Y161920D01*
X98920D01*
X100952Y163952D02*
Y170048D01*
X107048D01*
Y163952D01*
X100952D01*
X810260Y563880D02*
Y574040D01*
X820420D01*
Y563880D01*
X810260D01*
X812292Y565912D02*
Y572008D01*
X818388D01*
Y565912D01*
X812292D01*
X496649Y610791D02*
Y620951D01*
X506809D01*
Y610791D01*
X496649D01*
X498681Y612823D02*
Y618919D01*
X504777D01*
Y612823D01*
X498681D01*
X692150Y468630D02*
Y478790D01*
X702310D01*
Y468630D01*
X692150D01*
X694182Y470662D02*
Y476758D01*
X700278D01*
Y470662D01*
X694182D01*
X561340Y504190D02*
Y514350D01*
X571500D01*
Y504190D01*
X561340D01*
X563372Y506222D02*
Y512318D01*
X569468D01*
Y506222D01*
X563372D01*
X383540Y654050D02*
Y664210D01*
X393700D01*
Y654050D01*
X383540D01*
X385572Y656082D02*
Y662178D01*
X391668D01*
Y656082D01*
X385572D01*
X370840Y619760D02*
Y629920D01*
X381000D01*
Y619760D01*
X370840D01*
X372872Y621792D02*
Y627888D01*
X378968D01*
Y621792D01*
X372872D01*
X407670Y558800D02*
Y568960D01*
X417830D01*
Y558800D01*
X407670D01*
X409702Y560832D02*
Y566928D01*
X415798D01*
Y560832D01*
X409702D01*
X392430Y599440D02*
Y609600D01*
X402590D01*
Y599440D01*
X392430D01*
X394462Y601472D02*
Y607568D01*
X400558D01*
Y601472D01*
X394462D01*
X614680Y448310D02*
Y458470D01*
X624840D01*
Y448310D01*
X614680D01*
X616712Y450342D02*
Y456438D01*
X622808D01*
Y450342D01*
X616712D01*
X565150Y422910D02*
Y433070D01*
X575310D01*
Y422910D01*
X565150D01*
X567182Y424942D02*
Y431038D01*
X573278D01*
Y424942D01*
X567182D01*
X425450Y496570D02*
Y506730D01*
X435610D01*
Y496570D01*
X425450D01*
X427482Y498602D02*
Y504698D01*
X433578D01*
Y498602D01*
X427482D01*
X483870Y502920D02*
Y513080D01*
X494030D01*
Y502920D01*
X483870D01*
X485902Y504952D02*
Y511048D01*
X491998D01*
Y504952D01*
X485902D01*
X483870Y511810D02*
Y521970D01*
X494030D01*
Y511810D01*
X483870D01*
X485902Y513842D02*
Y519938D01*
X491998D01*
Y513842D01*
X485902D01*
X392430Y401320D02*
Y411480D01*
X402590D01*
Y401320D01*
X392430D01*
X394462Y403352D02*
Y409448D01*
X400558D01*
Y403352D01*
X394462D01*
X660400Y399518D02*
Y409678D01*
X670560D01*
Y399518D01*
X660400D01*
X662432Y401549D02*
Y407645D01*
X668528D01*
Y401549D01*
X662432D01*
X426720Y331470D02*
Y341630D01*
X436880D01*
Y331470D01*
X426720D01*
X428752Y333502D02*
Y339598D01*
X434848D01*
Y333502D01*
X428752D01*
X653760Y533110D02*
Y543270D01*
X663920D01*
Y533110D01*
X653760D01*
X655792Y535142D02*
Y541238D01*
X661888D01*
Y535142D01*
X655792D01*
X362550Y628050D02*
Y638210D01*
X372710D01*
Y628050D01*
X362550D01*
X364582Y630082D02*
Y636178D01*
X370678D01*
Y630082D01*
X364582D01*
X367030Y787400D02*
Y797560D01*
X377190D01*
Y787400D01*
X367030D01*
X369062Y789432D02*
Y795528D01*
X375158D01*
Y789432D01*
X369062D01*
X365760Y727710D02*
Y737870D01*
X375920D01*
Y727710D01*
X365760D01*
X367792Y729742D02*
Y735838D01*
X373888D01*
Y729742D01*
X367792D01*
X398780Y744220D02*
Y754380D01*
X408940D01*
Y744220D01*
X398780D01*
X400812Y746252D02*
Y752348D01*
X406908D01*
Y746252D01*
X400812D01*
X437252Y597798D02*
Y607958D01*
X447412D01*
Y597798D01*
X437252D01*
X439284Y599830D02*
Y605926D01*
X445380D01*
Y599830D01*
X439284D01*
X654000Y518110D02*
Y528270D01*
X664160D01*
Y518110D01*
X654000D01*
X656032Y520142D02*
Y526238D01*
X662128D01*
Y520142D01*
X656032D01*
X212090Y815340D02*
Y825500D01*
X222250D01*
Y815340D01*
X212090D01*
X214122Y817372D02*
Y823468D01*
X220218D01*
Y817372D01*
X214122D01*
X215900Y791210D02*
Y801370D01*
X226060D01*
Y791210D01*
X215900D01*
X217932Y793242D02*
Y799338D01*
X224028D01*
Y793242D01*
X217932D01*
X215900Y850900D02*
Y861060D01*
X226060D01*
Y850900D01*
X215900D01*
X217932Y852932D02*
Y859028D01*
X224028D01*
Y852932D01*
X217932D01*
X273129Y850979D02*
Y861139D01*
X283289D01*
Y850979D01*
X273129D01*
X275161Y853011D02*
Y859107D01*
X281257D01*
Y853011D01*
X275161D01*
X463550Y533400D02*
Y543560D01*
X473710D01*
Y533400D01*
X463550D01*
X465582Y535432D02*
Y541528D01*
X471678D01*
Y535432D01*
X465582D01*
X473710Y534670D02*
Y544830D01*
X483870D01*
Y534670D01*
X473710D01*
X475742Y536702D02*
Y542798D01*
X481838D01*
Y536702D01*
X475742D01*
X347980Y461010D02*
Y471170D01*
X358140D01*
Y461010D01*
X347980D01*
X350012Y463042D02*
Y469138D01*
X356108D01*
Y463042D01*
X350012D01*
X438150Y643890D02*
Y654050D01*
X448310D01*
Y643890D01*
X438150D01*
X440182Y645922D02*
Y652018D01*
X446278D01*
Y645922D01*
X440182D01*
X471170Y610870D02*
Y621030D01*
X481330D01*
Y610870D01*
X471170D01*
X473202Y612902D02*
Y618998D01*
X479298D01*
Y612902D01*
X473202D01*
X317500Y668178D02*
Y678338D01*
X327660D01*
Y668178D01*
X317500D01*
X319533Y670210D02*
Y676306D01*
X325629D01*
Y670210D01*
X319533D01*
X160020Y872490D02*
Y882650D01*
X170180D01*
Y872490D01*
X160020D01*
X162052Y874522D02*
Y880618D01*
X168148D01*
Y874522D01*
X162052D01*
X485140Y534670D02*
Y544830D01*
X495300D01*
Y534670D01*
X485140D01*
X487172Y536702D02*
Y542798D01*
X493268D01*
Y536702D01*
X487172D01*
X347472Y481330D02*
Y491490D01*
X357632D01*
Y481330D01*
X347472D01*
X349504Y483362D02*
Y489458D01*
X355600D01*
Y483362D01*
X349504D01*
X460700Y568834D02*
Y578993D01*
X470859D01*
Y568834D01*
X460700D01*
X462732Y570866D02*
Y576962D01*
X468828D01*
Y570866D01*
X462732D01*
X551180Y540600D02*
Y550760D01*
X561340D01*
Y540600D01*
X551180D01*
X553212Y542632D02*
Y548728D01*
X559308D01*
Y542632D01*
X553212D01*
X461010Y553720D02*
Y563880D01*
X471170D01*
Y553720D01*
X461010D01*
X463042Y555752D02*
Y561848D01*
X469138D01*
Y555752D01*
X463042D01*
X461010Y561340D02*
Y571500D01*
X471170D01*
Y561340D01*
X461010D01*
X463042Y563372D02*
Y569468D01*
X469138D01*
Y563372D01*
X463042D01*
X461010Y490220D02*
Y500380D01*
X471170D01*
Y490220D01*
X461010D01*
X463042Y492252D02*
Y498348D01*
X469138D01*
Y492252D01*
X463042D01*
X122920Y473920D02*
Y484080D01*
X133080D01*
Y473920D01*
X122920D01*
X124952Y475952D02*
Y482048D01*
X131048D01*
Y475952D01*
X124952D01*
X508000Y425450D02*
Y435610D01*
X518160D01*
Y425450D01*
X508000D01*
X510032Y427482D02*
Y433578D01*
X516128D01*
Y427482D01*
X510032D01*
X460640Y499480D02*
Y509640D01*
X470800D01*
Y499480D01*
X460640D01*
X462672Y501512D02*
Y507608D01*
X468768D01*
Y501512D01*
X462672D01*
X513920Y579550D02*
Y589710D01*
X524080D01*
Y579550D01*
X513920D01*
X515952Y581582D02*
Y587678D01*
X522048D01*
Y581582D01*
X515952D01*
X492760Y576580D02*
Y586740D01*
X502920D01*
Y576580D01*
X492760D01*
X494792Y578612D02*
Y584708D01*
X500888D01*
Y578612D01*
X494792D01*
X562610Y541020D02*
Y551180D01*
X572770D01*
Y541020D01*
X562610D01*
X564642Y543052D02*
Y549148D01*
X570738D01*
Y543052D01*
X564642D01*
X568960Y528320D02*
Y538480D01*
X579120D01*
Y528320D01*
X568960D01*
X570992Y530352D02*
Y536448D01*
X577088D01*
Y530352D01*
X570992D01*
X486410Y473710D02*
Y483870D01*
X496570D01*
Y473710D01*
X486410D01*
X488442Y475742D02*
Y481838D01*
X494538D01*
Y475742D01*
X488442D01*
X463550Y706120D02*
Y716280D01*
X473710D01*
Y706120D01*
X463550D01*
X465582Y708152D02*
Y714248D01*
X471678D01*
Y708152D01*
X465582D01*
X814143Y1033130D02*
Y1043290D01*
X824303D01*
Y1033130D01*
X814143D01*
X816175Y1035162D02*
Y1041258D01*
X822271D01*
Y1035162D01*
X816175D01*
X847920Y1048920D02*
Y1059080D01*
X858080D01*
Y1048920D01*
X847920D01*
X849952Y1050952D02*
Y1057048D01*
X856048D01*
Y1050952D01*
X849952D01*
X609600Y1092200D02*
Y1102360D01*
X619760D01*
Y1092200D01*
X609600D01*
X611632Y1094232D02*
Y1100328D01*
X617728D01*
Y1094232D01*
X611632D01*
X426720Y459740D02*
Y469900D01*
X436880D01*
Y459740D01*
X426720D01*
X428752Y461772D02*
Y467868D01*
X434848D01*
Y461772D01*
X428752D01*
X224790Y908050D02*
Y918210D01*
X234950D01*
Y908050D01*
X224790D01*
X226822Y910082D02*
Y916178D01*
X232918D01*
Y910082D01*
X226822D01*
X209135Y908465D02*
Y918625D01*
X219295D01*
Y908465D01*
X209135D01*
X211167Y910497D02*
Y916593D01*
X217263D01*
Y910497D01*
X211167D01*
X355394Y874824D02*
Y884984D01*
X365554D01*
Y874824D01*
X355394D01*
X357426Y876856D02*
Y882952D01*
X363522D01*
Y876856D01*
X357426D01*
X283920Y792480D02*
Y802640D01*
X294080D01*
Y792480D01*
X283920D01*
X285952Y794512D02*
Y800608D01*
X292048D01*
Y794512D01*
X285952D01*
X919420Y429375D02*
Y439535D01*
X929580D01*
Y429375D01*
X919420D01*
X921452Y431407D02*
Y437503D01*
X927548D01*
Y431407D01*
X921452D01*
X104920Y846920D02*
Y857080D01*
X115080D01*
Y846920D01*
X104920D01*
X106952Y848952D02*
Y855048D01*
X113048D01*
Y848952D01*
X106952D01*
X102920Y835920D02*
Y846080D01*
X113080D01*
Y835920D01*
X102920D01*
X104952Y837952D02*
Y844048D01*
X111048D01*
Y837952D01*
X104952D01*
X64920Y835920D02*
Y846080D01*
X75080D01*
Y835920D01*
X64920D01*
X66952Y837952D02*
Y844048D01*
X73048D01*
Y837952D01*
X66952D01*
X77587Y835920D02*
Y846080D01*
X87747D01*
Y835920D01*
X77587D01*
X79619Y837952D02*
Y844048D01*
X85715D01*
Y837952D01*
X79619D01*
X90253Y835920D02*
Y846080D01*
X100413D01*
Y835920D01*
X90253D01*
X92285Y837952D02*
Y844048D01*
X98381D01*
Y837952D01*
X92285D01*
X102920Y931587D02*
Y941747D01*
X113080D01*
Y931587D01*
X102920D01*
X104952Y933619D02*
Y939715D01*
X111048D01*
Y933619D01*
X104952D01*
X102920Y944253D02*
Y954413D01*
X113080D01*
Y944253D01*
X102920D01*
X104952Y946285D02*
Y952381D01*
X111048D01*
Y946285D01*
X104952D01*
X102920Y956920D02*
Y967080D01*
X113080D01*
Y956920D01*
X102920D01*
X104952Y958952D02*
Y965048D01*
X111048D01*
Y958952D01*
X104952D01*
X90920Y967920D02*
Y978080D01*
X101080D01*
Y967920D01*
X90920D01*
X92952Y969952D02*
Y976048D01*
X99048D01*
Y969952D01*
X92952D01*
X78920Y967920D02*
Y978080D01*
X89080D01*
Y967920D01*
X78920D01*
X80952Y969952D02*
Y976048D01*
X87048D01*
Y969952D01*
X80952D01*
X66920Y967920D02*
Y978080D01*
X77080D01*
Y967920D01*
X66920D01*
X68952Y969952D02*
Y976048D01*
X75048D01*
Y969952D01*
X68952D01*
X54920Y967920D02*
Y978080D01*
X65080D01*
Y967920D01*
X54920D01*
X56952Y969952D02*
Y976048D01*
X63048D01*
Y969952D01*
X56952D01*
X42920Y967920D02*
Y978080D01*
X53080D01*
Y967920D01*
X42920D01*
X44952Y969952D02*
Y976048D01*
X51048D01*
Y969952D01*
X44952D01*
X30920Y967920D02*
Y978080D01*
X41080D01*
Y967920D01*
X30920D01*
X32952Y969952D02*
Y976048D01*
X39048D01*
Y969952D01*
X32952D01*
X18920Y967920D02*
Y978080D01*
X29080D01*
Y967920D01*
X18920D01*
X20952Y969952D02*
Y976048D01*
X27048D01*
Y969952D01*
X20952D01*
X8920Y963920D02*
Y974080D01*
X19080D01*
Y963920D01*
X8920D01*
X10952Y965952D02*
Y972048D01*
X17048D01*
Y965952D01*
X10952D01*
X1920Y956920D02*
Y967080D01*
X12080D01*
Y956920D01*
X1920D01*
X3952Y958952D02*
Y965048D01*
X10048D01*
Y958952D01*
X3952D01*
X36920Y906920D02*
Y917080D01*
X47080D01*
Y906920D01*
X36920D01*
X38952Y908952D02*
Y915048D01*
X45048D01*
Y908952D01*
X38952D01*
X25920Y893920D02*
Y904080D01*
X36080D01*
Y893920D01*
X25920D01*
X27952Y895952D02*
Y902048D01*
X34048D01*
Y895952D01*
X27952D01*
X25920Y906920D02*
Y917080D01*
X36080D01*
Y906920D01*
X25920D01*
X27952Y908952D02*
Y915048D01*
X34048D01*
Y908952D01*
X27952D01*
X12920Y861920D02*
Y872080D01*
X23080D01*
Y861920D01*
X12920D01*
X14952Y863952D02*
Y870048D01*
X21048D01*
Y863952D01*
X14952D01*
X19920Y851920D02*
Y862080D01*
X30080D01*
Y851920D01*
X19920D01*
X21952Y853952D02*
Y860048D01*
X28048D01*
Y853952D01*
X21952D01*
X29920Y845920D02*
Y856080D01*
X40080D01*
Y845920D01*
X29920D01*
X31952Y847952D02*
Y854048D01*
X38048D01*
Y847952D01*
X31952D01*
X43920Y845920D02*
Y856080D01*
X54080D01*
Y845920D01*
X43920D01*
X45952Y847952D02*
Y854048D01*
X52048D01*
Y847952D01*
X45952D01*
X53920Y849920D02*
Y860080D01*
X64080D01*
Y849920D01*
X53920D01*
X55952Y851952D02*
Y858048D01*
X62048D01*
Y851952D01*
X55952D01*
X59920Y858920D02*
Y869080D01*
X70080D01*
Y858920D01*
X59920D01*
X61952Y860952D02*
Y867048D01*
X68048D01*
Y860952D01*
X61952D01*
X71920Y858920D02*
Y869080D01*
X82080D01*
Y858920D01*
X71920D01*
X73952Y860952D02*
Y867048D01*
X80048D01*
Y860952D01*
X73952D01*
X98920Y860920D02*
Y871080D01*
X109080D01*
Y860920D01*
X98920D01*
X100952Y862952D02*
Y869048D01*
X107048D01*
Y862952D01*
X100952D01*
X96920Y872920D02*
Y883080D01*
X107080D01*
Y872920D01*
X96920D01*
X98952Y874952D02*
Y881048D01*
X105048D01*
Y874952D01*
X98952D01*
X88920Y880920D02*
Y891080D01*
X99080D01*
Y880920D01*
X88920D01*
X90952Y882952D02*
Y889048D01*
X97048D01*
Y882952D01*
X90952D01*
X79920Y886920D02*
Y897080D01*
X90080D01*
Y886920D01*
X79920D01*
X81952Y888952D02*
Y895048D01*
X88048D01*
Y888952D01*
X81952D01*
X68920Y886920D02*
Y897080D01*
X79080D01*
Y886920D01*
X68920D01*
X70952Y888952D02*
Y895048D01*
X77048D01*
Y888952D01*
X70952D01*
X56920Y886920D02*
Y897080D01*
X67080D01*
Y886920D01*
X56920D01*
X58952Y888952D02*
Y895048D01*
X65048D01*
Y888952D01*
X58952D01*
X56920Y898920D02*
Y909080D01*
X67080D01*
Y898920D01*
X56920D01*
X58952Y900952D02*
Y907048D01*
X65048D01*
Y900952D01*
X58952D01*
X64920Y918920D02*
Y929080D01*
X75080D01*
Y918920D01*
X64920D01*
X66952Y920952D02*
Y927048D01*
X73048D01*
Y920952D01*
X66952D01*
X64920Y908920D02*
Y919080D01*
X75080D01*
Y908920D01*
X64920D01*
X66952Y910952D02*
Y917048D01*
X73048D01*
Y910952D01*
X66952D01*
X76920Y908920D02*
Y919080D01*
X87080D01*
Y908920D01*
X76920D01*
X78952Y910952D02*
Y917048D01*
X85048D01*
Y910952D01*
X78952D01*
X88920Y908920D02*
Y919080D01*
X99080D01*
Y908920D01*
X88920D01*
X90952Y910952D02*
Y917048D01*
X97048D01*
Y910952D01*
X90952D01*
X551920Y1257920D02*
Y1268080D01*
X562080D01*
Y1257920D01*
X551920D01*
X553952Y1259952D02*
Y1266048D01*
X560048D01*
Y1259952D01*
X553952D01*
X618920Y1215920D02*
Y1226080D01*
X629080D01*
Y1215920D01*
X618920D01*
X620952Y1217952D02*
Y1224048D01*
X627048D01*
Y1217952D01*
X620952D01*
X607920Y1225920D02*
Y1236080D01*
X618080D01*
Y1225920D01*
X607920D01*
X609952Y1227952D02*
Y1234048D01*
X616048D01*
Y1227952D01*
X609952D01*
X581920Y1209920D02*
Y1220080D01*
X592080D01*
Y1209920D01*
X581920D01*
X583952Y1211952D02*
Y1218048D01*
X590048D01*
Y1211952D01*
X583952D01*
X102920Y918920D02*
Y929080D01*
X113080D01*
Y918920D01*
X102920D01*
X104952Y920952D02*
Y927048D01*
X111048D01*
Y920952D01*
X104952D01*
X779043Y1017920D02*
Y1028080D01*
X789203D01*
Y1017920D01*
X779043D01*
X781075Y1019952D02*
Y1026048D01*
X787171D01*
Y1019952D01*
X781075D01*
X934720Y1071880D02*
Y1082040D01*
X944880D01*
Y1071880D01*
X934720D01*
X936752Y1073912D02*
Y1080008D01*
X942848D01*
Y1073912D01*
X936752D01*
X899160Y1071880D02*
Y1082040D01*
X909320D01*
Y1071880D01*
X899160D01*
X901192Y1073912D02*
Y1080008D01*
X907288D01*
Y1073912D01*
X901192D01*
X788920Y114920D02*
Y125080D01*
X799080D01*
Y114920D01*
X788920D01*
X790952Y116952D02*
Y123048D01*
X797048D01*
Y116952D01*
X790952D01*
X247396Y452628D02*
Y462788D01*
X257556D01*
Y452628D01*
X247396D01*
X249428Y454660D02*
Y460756D01*
X255524D01*
Y454660D01*
X249428D01*
X140920Y677920D02*
Y688080D01*
X151080D01*
Y677920D01*
X140920D01*
X142952Y679952D02*
Y686048D01*
X149048D01*
Y679952D01*
X142952D01*
X445920Y651920D02*
Y662080D01*
X456080D01*
Y651920D01*
X445920D01*
X447952Y653952D02*
Y660048D01*
X454048D01*
Y653952D01*
X447952D01*
X708660Y797560D02*
Y807720D01*
X718820D01*
Y797560D01*
X708660D01*
X710692Y799592D02*
Y805688D01*
X716788D01*
Y799592D01*
X710692D01*
X373920Y1128920D02*
Y1139080D01*
X384080D01*
Y1128920D01*
X373920D01*
X375952Y1130952D02*
Y1137048D01*
X382048D01*
Y1130952D01*
X375952D01*
X173920Y1157920D02*
Y1168080D01*
X184080D01*
Y1157920D01*
X173920D01*
X175952Y1159952D02*
Y1166048D01*
X182048D01*
Y1159952D01*
X175952D01*
X179920Y1289920D02*
Y1300080D01*
X190080D01*
Y1289920D01*
X179920D01*
X181952Y1291952D02*
Y1298048D01*
X188048D01*
Y1291952D01*
X181952D01*
X399920Y921920D02*
Y932080D01*
X410080D01*
Y921920D01*
X399920D01*
X401952Y923952D02*
Y930048D01*
X408048D01*
Y923952D01*
X401952D01*
X859920Y760920D02*
Y771080D01*
X870080D01*
Y760920D01*
X859920D01*
X861952Y762952D02*
Y769048D01*
X868048D01*
Y762952D01*
X861952D01*
X708660Y848360D02*
Y858520D01*
X718820D01*
Y848360D01*
X708660D01*
X710692Y850392D02*
Y856488D01*
X716788D01*
Y850392D01*
X710692D01*
X794920Y577920D02*
Y588080D01*
X805080D01*
Y577920D01*
X794920D01*
X796952Y579952D02*
Y586048D01*
X803048D01*
Y579952D01*
X796952D01*
X535920Y294920D02*
Y305080D01*
X546080D01*
Y294920D01*
X535920D01*
X537952Y296952D02*
Y303048D01*
X544048D01*
Y296952D01*
X537952D01*
X269920Y588920D02*
Y599080D01*
X280080D01*
Y588920D01*
X269920D01*
X271952Y590952D02*
Y597048D01*
X278048D01*
Y590952D01*
X271952D01*
X238760Y790194D02*
Y800354D01*
X248920D01*
Y790194D01*
X238760D01*
X240792Y792226D02*
Y798322D01*
X246888D01*
Y792226D01*
X240792D01*
X82920Y566920D02*
Y577080D01*
X93080D01*
Y566920D01*
X82920D01*
X84952Y568952D02*
Y575048D01*
X91048D01*
Y568952D01*
X84952D01*
X167920Y401920D02*
Y412080D01*
X178080D01*
Y401920D01*
X167920D01*
X169952Y403952D02*
Y410048D01*
X176048D01*
Y403952D01*
X169952D01*
X353060Y203200D02*
Y213360D01*
X363220D01*
Y203200D01*
X353060D01*
X355092Y205232D02*
Y211328D01*
X361188D01*
Y205232D01*
X355092D01*
X251920Y17920D02*
Y28080D01*
X262080D01*
Y17920D01*
X251920D01*
X253952Y19952D02*
Y26048D01*
X260048D01*
Y19952D01*
X253952D01*
X10920Y79920D02*
Y90080D01*
X21080D01*
Y79920D01*
X10920D01*
X12952Y81952D02*
Y88048D01*
X19048D01*
Y81952D01*
X12952D01*
X87920Y16920D02*
Y27080D01*
X98080D01*
Y16920D01*
X87920D01*
X89952Y18952D02*
Y25048D01*
X96048D01*
Y18952D01*
X89952D01*
X831920Y29920D02*
Y40080D01*
X842080D01*
Y29920D01*
X831920D01*
X833952Y31952D02*
Y38048D01*
X840048D01*
Y31952D01*
X833952D01*
X921920Y123920D02*
Y134080D01*
X932080D01*
Y123920D01*
X921920D01*
X923952Y125952D02*
Y132048D01*
X930048D01*
Y125952D01*
X923952D01*
X979920Y210920D02*
Y221080D01*
X990080D01*
Y210920D01*
X979920D01*
X981952Y212952D02*
Y219048D01*
X988048D01*
Y212952D01*
X981952D01*
X922920Y1199920D02*
Y1210080D01*
X933080D01*
Y1199920D01*
X922920D01*
X924952Y1201952D02*
Y1208048D01*
X931048D01*
Y1201952D01*
X924952D01*
X985520Y1135380D02*
Y1145540D01*
X995680D01*
Y1135380D01*
X985520D01*
X987552Y1137412D02*
Y1143508D01*
X993648D01*
Y1137412D01*
X987552D01*
X970920Y985920D02*
Y996080D01*
X981080D01*
Y985920D01*
X970920D01*
X972952Y987952D02*
Y994048D01*
X979048D01*
Y987952D01*
X972952D01*
X981920Y1283920D02*
Y1294080D01*
X992080D01*
Y1283920D01*
X981920D01*
X983952Y1285952D02*
Y1292048D01*
X990048D01*
Y1285952D01*
X983952D01*
X288920Y949920D02*
Y960080D01*
X299080D01*
Y949920D01*
X288920D01*
X290952Y951952D02*
Y958048D01*
X297048D01*
Y951952D01*
X290952D01*
X263920Y1030920D02*
Y1041080D01*
X274080D01*
Y1030920D01*
X263920D01*
X265952Y1032952D02*
Y1039048D01*
X272048D01*
Y1032952D01*
X265952D01*
X97920Y1021920D02*
Y1032080D01*
X108080D01*
Y1021920D01*
X97920D01*
X99952Y1023952D02*
Y1030048D01*
X106048D01*
Y1023952D01*
X99952D01*
X266920Y1107920D02*
Y1118080D01*
X277080D01*
Y1107920D01*
X266920D01*
X268952Y1109952D02*
Y1116048D01*
X275048D01*
Y1109952D01*
X268952D01*
X880920Y1312920D02*
Y1323080D01*
X891080D01*
Y1312920D01*
X880920D01*
X882952Y1314952D02*
Y1321048D01*
X889048D01*
Y1314952D01*
X882952D01*
X787920Y1414920D02*
Y1425080D01*
X798080D01*
Y1414920D01*
X787920D01*
X789952Y1416952D02*
Y1423048D01*
X796048D01*
Y1416952D01*
X789952D01*
X757920Y1386920D02*
Y1397080D01*
X768080D01*
Y1386920D01*
X757920D01*
X759952Y1388952D02*
Y1395048D01*
X766048D01*
Y1388952D01*
X759952D01*
X787920Y1357920D02*
Y1368080D01*
X798080D01*
Y1357920D01*
X787920D01*
X789952Y1359952D02*
Y1366048D01*
X796048D01*
Y1359952D01*
X789952D01*
X757920Y1264920D02*
Y1275080D01*
X768080D01*
Y1264920D01*
X757920D01*
X759952Y1266952D02*
Y1273048D01*
X766048D01*
Y1266952D01*
X759952D01*
X297920Y1290920D02*
Y1301080D01*
X308080D01*
Y1290920D01*
X297920D01*
X299952Y1292952D02*
Y1299048D01*
X306048D01*
Y1292952D01*
X299952D01*
X283920Y1309920D02*
Y1320080D01*
X294080D01*
Y1309920D01*
X283920D01*
X285952Y1311952D02*
Y1318048D01*
X292048D01*
Y1311952D01*
X285952D01*
X207920Y1297920D02*
Y1308080D01*
X218080D01*
Y1297920D01*
X207920D01*
X209952Y1299952D02*
Y1306048D01*
X216048D01*
Y1299952D01*
X209952D01*
X207920Y1251920D02*
Y1262080D01*
X218080D01*
Y1251920D01*
X207920D01*
X209952Y1253952D02*
Y1260048D01*
X216048D01*
Y1253952D01*
X209952D01*
X280920Y1180920D02*
Y1191080D01*
X291080D01*
Y1180920D01*
X280920D01*
X282952Y1182952D02*
Y1189048D01*
X289048D01*
Y1182952D01*
X282952D01*
X387920Y1212920D02*
Y1223080D01*
X398080D01*
Y1212920D01*
X387920D01*
X389952Y1214952D02*
Y1221048D01*
X396048D01*
Y1214952D01*
X389952D01*
X391920Y1251920D02*
Y1262080D01*
X402080D01*
Y1251920D01*
X391920D01*
X393952Y1253952D02*
Y1260048D01*
X400048D01*
Y1253952D01*
X393952D01*
X345920Y1260920D02*
Y1271080D01*
X356080D01*
Y1260920D01*
X345920D01*
X347952Y1262952D02*
Y1269048D01*
X354048D01*
Y1262952D01*
X347952D01*
X643920Y1280920D02*
Y1291080D01*
X654080D01*
Y1280920D01*
X643920D01*
X645952Y1282952D02*
Y1289048D01*
X652048D01*
Y1282952D01*
X645952D01*
X614920Y1294920D02*
Y1305080D01*
X625080D01*
Y1294920D01*
X614920D01*
X616952Y1296952D02*
Y1303048D01*
X623048D01*
Y1296952D01*
X616952D01*
X595920Y1286920D02*
Y1297080D01*
X606080D01*
Y1286920D01*
X595920D01*
X597952Y1288952D02*
Y1295048D01*
X604048D01*
Y1288952D01*
X597952D01*
X545920Y1316920D02*
Y1327080D01*
X556080D01*
Y1316920D01*
X545920D01*
X547952Y1318952D02*
Y1325048D01*
X554048D01*
Y1318952D01*
X547952D01*
X678920Y1419920D02*
Y1430080D01*
X689080D01*
Y1419920D01*
X678920D01*
X680952Y1421952D02*
Y1428048D01*
X687048D01*
Y1421952D01*
X680952D01*
X581920Y1332920D02*
Y1343080D01*
X592080D01*
Y1332920D01*
X581920D01*
X583952Y1334952D02*
Y1341048D01*
X590048D01*
Y1334952D01*
X583952D01*
X698920Y1318920D02*
Y1329080D01*
X709080D01*
Y1318920D01*
X698920D01*
X700952Y1320952D02*
Y1327048D01*
X707048D01*
Y1320952D01*
X700952D01*
X670920Y1329920D02*
Y1340080D01*
X681080D01*
Y1329920D01*
X670920D01*
X672952Y1331952D02*
Y1338048D01*
X679048D01*
Y1331952D01*
X672952D01*
X659920Y1347920D02*
Y1358080D01*
X670080D01*
Y1347920D01*
X659920D01*
X661952Y1349952D02*
Y1356048D01*
X668048D01*
Y1349952D01*
X661952D01*
X678920Y1368920D02*
Y1379080D01*
X689080D01*
Y1368920D01*
X678920D01*
X680952Y1370952D02*
Y1377048D01*
X687048D01*
Y1370952D01*
X680952D01*
X96920Y483920D02*
Y494080D01*
X107080D01*
Y483920D01*
X96920D01*
X98952Y485952D02*
Y492048D01*
X105048D01*
Y485952D01*
X98952D01*
X483920Y209920D02*
Y220080D01*
X494080D01*
Y209920D01*
X483920D01*
X485952Y211952D02*
Y218048D01*
X492048D01*
Y211952D01*
X485952D01*
X747920Y1391920D02*
Y1402080D01*
X758080D01*
Y1391920D01*
X747920D01*
X749952Y1393952D02*
Y1400048D01*
X756048D01*
Y1393952D01*
X749952D01*
X545443Y1298443D02*
Y1308603D01*
X555603D01*
Y1298443D01*
X545443D01*
X547475Y1300475D02*
Y1306571D01*
X553571D01*
Y1300475D01*
X547475D01*
X678143Y1396143D02*
Y1406303D01*
X688303D01*
Y1396143D01*
X678143D01*
X680175Y1398175D02*
Y1404271D01*
X686271D01*
Y1398175D01*
X680175D01*
X644364Y1218476D02*
Y1228636D01*
X654524D01*
Y1218476D01*
X644364D01*
X646396Y1220508D02*
Y1226604D01*
X652492D01*
Y1220508D01*
X646396D01*
X538920Y1200920D02*
Y1211080D01*
X549080D01*
Y1200920D01*
X538920D01*
X540952Y1202952D02*
Y1209048D01*
X547048D01*
Y1202952D01*
X540952D01*
X624920Y1225420D02*
Y1235580D01*
X635080D01*
Y1225420D01*
X624920D01*
X626952Y1227452D02*
Y1233548D01*
X633048D01*
Y1227452D01*
X626952D01*
X694920Y1228920D02*
Y1239080D01*
X705080D01*
Y1228920D01*
X694920D01*
X696952Y1230952D02*
Y1237048D01*
X703048D01*
Y1230952D01*
X696952D01*
X735920Y1096920D02*
Y1107080D01*
X746080D01*
Y1096920D01*
X735920D01*
X737952Y1098952D02*
Y1105048D01*
X744048D01*
Y1098952D01*
X737952D01*
X719920Y1194920D02*
Y1205080D01*
X730080D01*
Y1194920D01*
X719920D01*
X721952Y1196952D02*
Y1203048D01*
X728048D01*
Y1196952D01*
X721952D01*
X643920Y1197920D02*
Y1208080D01*
X654080D01*
Y1197920D01*
X643920D01*
X645952Y1199952D02*
Y1206048D01*
X652048D01*
Y1199952D01*
X645952D01*
X651920Y1172920D02*
Y1183080D01*
X662080D01*
Y1172920D01*
X651920D01*
X653952Y1174952D02*
Y1181048D01*
X660048D01*
Y1174952D01*
X653952D01*
X645920Y1152920D02*
Y1163080D01*
X656080D01*
Y1152920D01*
X645920D01*
X647952Y1154952D02*
Y1161048D01*
X654048D01*
Y1154952D01*
X647952D01*
X683670Y1278670D02*
Y1288830D01*
X693830D01*
Y1278670D01*
X683670D01*
X685702Y1280702D02*
Y1286798D01*
X691798D01*
Y1280702D01*
X685702D01*
X677354Y1379354D02*
Y1389514D01*
X687514D01*
Y1379354D01*
X677354D01*
X679386Y1381386D02*
Y1387482D01*
X685482D01*
Y1381386D01*
X679386D01*
X700920Y1402920D02*
Y1413080D01*
X711080D01*
Y1402920D01*
X700920D01*
X702952Y1404952D02*
Y1411048D01*
X709048D01*
Y1404952D01*
X702952D01*
X691420Y1251920D02*
Y1262080D01*
X701580D01*
Y1251920D01*
X691420D01*
X693452Y1253952D02*
Y1260048D01*
X699548D01*
Y1253952D01*
X693452D01*
X323920Y1383920D02*
Y1394080D01*
X334080D01*
Y1383920D01*
X323920D01*
X325952Y1385952D02*
Y1392048D01*
X332048D01*
Y1385952D01*
X325952D01*
X563843Y1323843D02*
Y1334003D01*
X574003D01*
Y1323843D01*
X563843D01*
X565875Y1325875D02*
Y1331971D01*
X571971D01*
Y1325875D01*
X565875D01*
X487843Y1323843D02*
Y1334003D01*
X498003D01*
Y1323843D01*
X487843D01*
X489875Y1325875D02*
Y1331971D01*
X495971D01*
Y1325875D01*
X489875D01*
X671920Y1236133D02*
Y1246293D01*
X682080D01*
Y1236133D01*
X671920D01*
X673952Y1238165D02*
Y1244261D01*
X680048D01*
Y1238165D01*
X673952D01*
X587920Y1310920D02*
Y1321080D01*
X598080D01*
Y1310920D01*
X587920D01*
X589952Y1312952D02*
Y1319048D01*
X596048D01*
Y1312952D01*
X589952D01*
X655920Y1332920D02*
Y1343080D01*
X666080D01*
Y1332920D01*
X655920D01*
X657952Y1334952D02*
Y1341048D01*
X664048D01*
Y1334952D01*
X657952D01*
X140920Y151920D02*
Y162080D01*
X151080D01*
Y151920D01*
X140920D01*
X142952Y153952D02*
Y160048D01*
X149048D01*
Y153952D01*
X142952D01*
X68920Y160920D02*
Y171080D01*
X79080D01*
Y160920D01*
X68920D01*
X70952Y162952D02*
Y169048D01*
X77048D01*
Y162952D01*
X70952D01*
X662940Y807720D02*
Y817880D01*
X673100D01*
Y807720D01*
X662940D01*
X664972Y809752D02*
Y815848D01*
X671068D01*
Y809752D01*
X664972D01*
X863920Y1102590D02*
Y1112750D01*
X874080D01*
Y1102590D01*
X863920D01*
X865952Y1104622D02*
Y1110718D01*
X872048D01*
Y1104622D01*
X865952D01*
X788920Y1263655D02*
Y1273815D01*
X799080D01*
Y1263655D01*
X788920D01*
X790952Y1265687D02*
Y1271783D01*
X797048D01*
Y1265687D01*
X790952D01*
X320920Y1196920D02*
Y1207080D01*
X331080D01*
Y1196920D01*
X320920D01*
X322952Y1198952D02*
Y1205048D01*
X329048D01*
Y1198952D01*
X322952D01*
X435920Y1215920D02*
Y1226080D01*
X446080D01*
Y1215920D01*
X435920D01*
X437952Y1217952D02*
Y1224048D01*
X444048D01*
Y1217952D01*
X437952D01*
X212920Y1184920D02*
Y1195080D01*
X223080D01*
Y1184920D01*
X212920D01*
X214952Y1186952D02*
Y1193048D01*
X221048D01*
Y1186952D01*
X214952D01*
X769920Y1223920D02*
Y1234080D01*
X780080D01*
Y1223920D01*
X769920D01*
X771952Y1225952D02*
Y1232048D01*
X778048D01*
Y1225952D01*
X771952D01*
X552920Y1216920D02*
Y1227080D01*
X563080D01*
Y1216920D01*
X552920D01*
X554952Y1218952D02*
Y1225048D01*
X561048D01*
Y1218952D01*
X554952D01*
X896506Y1031920D02*
Y1042080D01*
X906666D01*
Y1031920D01*
X896506D01*
X898538Y1033952D02*
Y1040048D01*
X904634D01*
Y1033952D01*
X898538D01*
X847920Y1023920D02*
Y1034080D01*
X858080D01*
Y1023920D01*
X847920D01*
X849952Y1025952D02*
Y1032048D01*
X856048D01*
Y1025952D01*
X849952D01*
X326920Y628920D02*
Y639080D01*
X337080D01*
Y628920D01*
X326920D01*
X328952Y630952D02*
Y637048D01*
X335048D01*
Y630952D01*
X328952D01*
X867920Y976920D02*
Y987080D01*
X878080D01*
Y976920D01*
X867920D01*
X869952Y978952D02*
Y985048D01*
X876048D01*
Y978952D01*
X869952D01*
X876920Y317920D02*
Y328080D01*
X887080D01*
Y317920D01*
X876920D01*
X878952Y319952D02*
Y326048D01*
X885048D01*
Y319952D01*
X878952D01*
X900220Y993620D02*
Y1003780D01*
X910380D01*
Y993620D01*
X900220D01*
X902252Y995652D02*
Y1001748D01*
X908348D01*
Y995652D01*
X902252D01*
X103714Y706784D02*
Y716944D01*
X113874D01*
Y706784D01*
X103714D01*
X105746Y708816D02*
Y714912D01*
X111842D01*
Y708816D01*
X105746D01*
X275920Y206920D02*
Y217080D01*
X286080D01*
Y206920D01*
X275920D01*
X277952Y208952D02*
Y215048D01*
X284048D01*
Y208952D01*
X277952D01*
X276920Y61920D02*
Y72080D01*
X287080D01*
Y61920D01*
X276920D01*
X278952Y63952D02*
Y70048D01*
X285048D01*
Y63952D01*
X278952D01*
X585159Y1389793D02*
Y1399953D01*
X595318D01*
Y1389793D01*
X585159D01*
X587191Y1391825D02*
Y1397921D01*
X593287D01*
Y1391825D01*
X587191D01*
X450159Y1304793D02*
Y1314953D01*
X460318D01*
Y1304793D01*
X450159D01*
X452191Y1306825D02*
Y1312921D01*
X458287D01*
Y1306825D01*
X452191D01*
X147920Y494920D02*
Y505080D01*
X158080D01*
Y494920D01*
X147920D01*
X149952Y496952D02*
Y503048D01*
X156048D01*
Y496952D01*
X149952D01*
X950736Y366920D02*
Y377080D01*
X960896D01*
Y366920D01*
X950736D01*
X952768Y368952D02*
Y375048D01*
X958864D01*
Y368952D01*
X952768D01*
X887920Y773920D02*
Y784080D01*
X898080D01*
Y773920D01*
X887920D01*
X889952Y775952D02*
Y782048D01*
X896048D01*
Y775952D01*
X889952D01*
X571920Y1173920D02*
Y1184080D01*
X582080D01*
Y1173920D01*
X571920D01*
X573952Y1175952D02*
Y1182048D01*
X580048D01*
Y1175952D01*
X573952D01*
X621920Y1165920D02*
Y1176080D01*
X632080D01*
Y1165920D01*
X621920D01*
X623952Y1167952D02*
Y1174048D01*
X630048D01*
Y1167952D01*
X623952D01*
X816920Y1094920D02*
Y1105080D01*
X827080D01*
Y1094920D01*
X816920D01*
X818952Y1096952D02*
Y1103048D01*
X825048D01*
Y1096952D01*
X818952D01*
X214920Y1272920D02*
Y1283080D01*
X225080D01*
Y1272920D01*
X214920D01*
X216952Y1274952D02*
Y1281048D01*
X223048D01*
Y1274952D01*
X216952D01*
X282920Y1294920D02*
Y1305080D01*
X293080D01*
Y1294920D01*
X282920D01*
X284952Y1296952D02*
Y1303048D01*
X291048D01*
Y1296952D01*
X284952D01*
X847920Y1199920D02*
Y1210080D01*
X858080D01*
Y1199920D01*
X847920D01*
X849952Y1201952D02*
Y1208048D01*
X856048D01*
Y1201952D01*
X849952D01*
X779920Y1177920D02*
Y1188080D01*
X790080D01*
Y1177920D01*
X779920D01*
X781952Y1179952D02*
Y1186048D01*
X788048D01*
Y1179952D01*
X781952D01*
X772920Y1361920D02*
Y1372080D01*
X783080D01*
Y1361920D01*
X772920D01*
X774952Y1363952D02*
Y1370048D01*
X781048D01*
Y1363952D01*
X774952D01*
X704633Y1382920D02*
Y1393080D01*
X714793D01*
Y1382920D01*
X704633D01*
X706665Y1384952D02*
Y1391048D01*
X712761D01*
Y1384952D01*
X706665D01*
X704920Y1339920D02*
Y1350080D01*
X715080D01*
Y1339920D01*
X704920D01*
X706952Y1341952D02*
Y1348048D01*
X713048D01*
Y1341952D01*
X706952D01*
X403920Y1186920D02*
Y1197080D01*
X414080D01*
Y1186920D01*
X403920D01*
X405952Y1188952D02*
Y1195048D01*
X412048D01*
Y1188952D01*
X405952D01*
X330920Y1258920D02*
Y1269080D01*
X341080D01*
Y1258920D01*
X330920D01*
X332952Y1260952D02*
Y1267048D01*
X339048D01*
Y1260952D01*
X332952D01*
X336920Y1279920D02*
Y1290080D01*
X347080D01*
Y1279920D01*
X336920D01*
X338952Y1281952D02*
Y1288048D01*
X345048D01*
Y1281952D01*
X338952D01*
X327920Y1304920D02*
Y1315080D01*
X338080D01*
Y1304920D01*
X327920D01*
X329952Y1306952D02*
Y1313048D01*
X336048D01*
Y1306952D01*
X329952D01*
X419920Y1297920D02*
Y1308080D01*
X430080D01*
Y1297920D01*
X419920D01*
X421952Y1299952D02*
Y1306048D01*
X428048D01*
Y1299952D01*
X421952D01*
X406920Y1316920D02*
Y1327080D01*
X417080D01*
Y1316920D01*
X406920D01*
X408952Y1318952D02*
Y1325048D01*
X415048D01*
Y1318952D01*
X408952D01*
X306920Y1416920D02*
Y1427080D01*
X317080D01*
Y1416920D01*
X306920D01*
X308952Y1418952D02*
Y1425048D01*
X315048D01*
Y1418952D01*
X308952D01*
X340920Y1346920D02*
Y1357080D01*
X351080D01*
Y1346920D01*
X340920D01*
X342952Y1348952D02*
Y1355048D01*
X349048D01*
Y1348952D01*
X342952D01*
X411682Y1378047D02*
Y1388207D01*
X421842D01*
Y1378047D01*
X411682D01*
X413713Y1380079D02*
Y1386175D01*
X419809D01*
Y1380079D01*
X413713D01*
X390297Y1404297D02*
Y1414457D01*
X400457D01*
Y1404297D01*
X390297D01*
X392329Y1406329D02*
Y1412425D01*
X398425D01*
Y1406329D01*
X392329D01*
X782066Y486410D02*
Y496570D01*
X792226D01*
Y486410D01*
X782066D01*
X784098Y488442D02*
Y494538D01*
X790194D01*
Y488442D01*
X784098D01*
X577596Y387604D02*
Y397764D01*
X587756D01*
Y387604D01*
X577596D01*
X579628Y389636D02*
Y395732D01*
X585724D01*
Y389636D01*
X579628D01*
X777240Y445008D02*
Y455168D01*
X787400D01*
Y445008D01*
X777240D01*
X779272Y447040D02*
Y453136D01*
X785368D01*
Y447040D01*
X779272D01*
X665988Y454914D02*
Y465074D01*
X676148D01*
Y454914D01*
X665988D01*
X668020Y456946D02*
Y463042D01*
X674116D01*
Y456946D01*
X668020D01*
X985920Y810920D02*
Y821080D01*
X996080D01*
Y810920D01*
X985920D01*
X987952Y812952D02*
Y819048D01*
X994048D01*
Y812952D01*
X987952D01*
X978920Y772920D02*
Y783080D01*
X989080D01*
Y772920D01*
X978920D01*
X980952Y774952D02*
Y781048D01*
X987048D01*
Y774952D01*
X980952D01*
X972920Y650920D02*
Y661080D01*
X983080D01*
Y650920D01*
X972920D01*
X974952Y652952D02*
Y659048D01*
X981048D01*
Y652952D01*
X974952D01*
X975920Y682920D02*
Y693080D01*
X986080D01*
Y682920D01*
X975920D01*
X977952Y684952D02*
Y691048D01*
X984048D01*
Y684952D01*
X977952D01*
X954920Y696920D02*
Y707080D01*
X965080D01*
Y696920D01*
X954920D01*
X956952Y698952D02*
Y705048D01*
X963048D01*
Y698952D01*
X956952D01*
X974920Y710920D02*
Y721080D01*
X985080D01*
Y710920D01*
X974920D01*
X976952Y712952D02*
Y719048D01*
X983048D01*
Y712952D01*
X976952D01*
X879920Y663920D02*
Y674080D01*
X890080D01*
Y663920D01*
X879920D01*
X881952Y665952D02*
Y672048D01*
X888048D01*
Y665952D01*
X881952D01*
X845920Y631920D02*
Y642080D01*
X856080D01*
Y631920D01*
X845920D01*
X847952Y633952D02*
Y640048D01*
X854048D01*
Y633952D01*
X847952D01*
X845920Y461920D02*
Y472080D01*
X856080D01*
Y461920D01*
X845920D01*
X847952Y463952D02*
Y470048D01*
X854048D01*
Y463952D01*
X847952D01*
X165920Y537920D02*
Y548080D01*
X176080D01*
Y537920D01*
X165920D01*
X167952Y539952D02*
Y546048D01*
X174048D01*
Y539952D01*
X167952D01*
X566920Y750920D02*
Y761080D01*
X577080D01*
Y750920D01*
X566920D01*
X568952Y752952D02*
Y759048D01*
X575048D01*
Y752952D01*
X568952D01*
X545920Y737920D02*
Y748080D01*
X556080D01*
Y737920D01*
X545920D01*
X547952Y739952D02*
Y746048D01*
X554048D01*
Y739952D01*
X547952D01*
X566920Y723920D02*
Y734080D01*
X577080D01*
Y723920D01*
X566920D01*
X568952Y725952D02*
Y732048D01*
X575048D01*
Y725952D01*
X568952D01*
X587920Y737920D02*
Y748080D01*
X598080D01*
Y737920D01*
X587920D01*
X589952Y739952D02*
Y746048D01*
X596048D01*
Y739952D01*
X589952D01*
X559920Y794920D02*
Y805080D01*
X570080D01*
Y794920D01*
X559920D01*
X561952Y796952D02*
Y803048D01*
X568048D01*
Y796952D01*
X561952D01*
X898043Y1044797D02*
Y1054957D01*
X908203D01*
Y1044797D01*
X898043D01*
X900075Y1046829D02*
Y1052925D01*
X906171D01*
Y1046829D01*
X900075D01*
X350920Y732920D02*
Y743080D01*
X361080D01*
Y732920D01*
X350920D01*
X352952Y734952D02*
Y741048D01*
X359048D01*
Y734952D01*
X352952D01*
X377081Y665759D02*
Y675919D01*
X387242D01*
Y665759D01*
X377081D01*
X379114Y667791D02*
Y673886D01*
X385210D01*
Y667791D01*
X379114D01*
X552920Y1166920D02*
Y1177080D01*
X563080D01*
Y1166920D01*
X552920D01*
X554952Y1168952D02*
Y1175048D01*
X561048D01*
Y1168952D01*
X554952D01*
X584920Y1191920D02*
Y1202080D01*
X595080D01*
Y1191920D01*
X584920D01*
X586952Y1193952D02*
Y1200048D01*
X593048D01*
Y1193952D01*
X586952D01*
X190920Y330920D02*
Y341080D01*
X201080D01*
Y330920D01*
X190920D01*
X192952Y332952D02*
Y339048D01*
X199048D01*
Y332952D01*
X192952D01*
X188920Y354920D02*
Y365080D01*
X199080D01*
Y354920D01*
X188920D01*
X190952Y356952D02*
Y363048D01*
X197048D01*
Y356952D01*
X190952D01*
X501920Y137920D02*
Y148080D01*
X512080D01*
Y137920D01*
X501920D01*
X503952Y139952D02*
Y146048D01*
X510048D01*
Y139952D01*
X503952D01*
X468920Y110920D02*
Y121080D01*
X479080D01*
Y110920D01*
X468920D01*
X470952Y112952D02*
Y119048D01*
X477048D01*
Y112952D01*
X470952D01*
X488920Y110920D02*
Y121080D01*
X499080D01*
Y110920D01*
X488920D01*
X490952Y112952D02*
Y119048D01*
X497048D01*
Y112952D01*
X490952D01*
X508920Y110920D02*
Y121080D01*
X519080D01*
Y110920D01*
X508920D01*
X510952Y112952D02*
Y119048D01*
X517048D01*
Y112952D01*
X510952D01*
X612248Y138370D02*
Y148530D01*
X622408D01*
Y138370D01*
X612248D01*
X614280Y140402D02*
Y146498D01*
X620376D01*
Y140402D01*
X614280D01*
X595120Y105066D02*
Y115226D01*
X605280D01*
Y105066D01*
X595120D01*
X597152Y107098D02*
Y113194D01*
X603248D01*
Y107098D01*
X597152D01*
X593120Y147173D02*
Y157333D01*
X603280D01*
Y147173D01*
X593120D01*
X595152Y149205D02*
Y155301D01*
X601248D01*
Y149205D01*
X595152D01*
X593120Y130066D02*
Y140226D01*
X603280D01*
Y130066D01*
X593120D01*
X595152Y132098D02*
Y138194D01*
X601248D01*
Y132098D01*
X595152D01*
X583370Y138620D02*
Y148780D01*
X593530D01*
Y138620D01*
X583370D01*
X585402Y140652D02*
Y146748D01*
X591498D01*
Y140652D01*
X585402D01*
X573620Y147173D02*
Y157333D01*
X583780D01*
Y147173D01*
X573620D01*
X575652Y149205D02*
Y155301D01*
X581748D01*
Y149205D01*
X575652D01*
X582120Y105066D02*
Y115226D01*
X592280D01*
Y105066D01*
X582120D01*
X584152Y107098D02*
Y113194D01*
X590248D01*
Y107098D01*
X584152D01*
X573620Y130066D02*
Y140226D01*
X583780D01*
Y130066D01*
X573620D01*
X575652Y132098D02*
Y138194D01*
X581748D01*
Y132098D01*
X575652D01*
X554920Y125920D02*
Y136080D01*
X565080D01*
Y125920D01*
X554920D01*
X556952Y127952D02*
Y134048D01*
X563048D01*
Y127952D01*
X556952D01*
X526920Y100920D02*
Y111080D01*
X537080D01*
Y100920D01*
X526920D01*
X528952Y102952D02*
Y109048D01*
X535048D01*
Y102952D01*
X528952D01*
X569120Y105066D02*
Y115226D01*
X579280D01*
Y105066D01*
X569120D01*
X571152Y107098D02*
Y113194D01*
X577248D01*
Y107098D01*
X571152D01*
X534920Y125920D02*
Y136080D01*
X545080D01*
Y125920D01*
X534920D01*
X536952Y127952D02*
Y134048D01*
X543048D01*
Y127952D01*
X536952D01*
X501920Y167920D02*
Y178080D01*
X512080D01*
Y167920D01*
X501920D01*
X503952Y169952D02*
Y176048D01*
X510048D01*
Y169952D01*
X503952D01*
X448920Y201920D02*
Y212080D01*
X459080D01*
Y201920D01*
X448920D01*
X450952Y203952D02*
Y210048D01*
X457048D01*
Y203952D01*
X450952D01*
X526920Y196920D02*
Y207080D01*
X537080D01*
Y196920D01*
X526920D01*
X528952Y198952D02*
Y205048D01*
X535048D01*
Y198952D01*
X528952D01*
X568820Y55570D02*
Y65730D01*
X578980D01*
Y55570D01*
X568820D01*
X570852Y57602D02*
Y63698D01*
X576948D01*
Y57602D01*
X570852D01*
X568820Y42570D02*
Y52730D01*
X578980D01*
Y42570D01*
X568820D01*
X570852Y44602D02*
Y50698D01*
X576948D01*
Y44602D01*
X570852D01*
X558820Y42570D02*
Y52730D01*
X568980D01*
Y42570D01*
X558820D01*
X560852Y44602D02*
Y50698D01*
X566948D01*
Y44602D01*
X560852D01*
X536120Y24070D02*
Y34230D01*
X546280D01*
Y24070D01*
X536120D01*
X538152Y26102D02*
Y32198D01*
X544248D01*
Y26102D01*
X538152D01*
X597420Y55570D02*
Y65730D01*
X607580D01*
Y55570D01*
X597420D01*
X599452Y57602D02*
Y63698D01*
X605548D01*
Y57602D01*
X599452D01*
X607420Y55570D02*
Y65730D01*
X617580D01*
Y55570D01*
X607420D01*
X609452Y57602D02*
Y63698D01*
X615548D01*
Y57602D01*
X609452D01*
X597420Y68570D02*
Y78730D01*
X607580D01*
Y68570D01*
X597420D01*
X599452Y70602D02*
Y76698D01*
X605548D01*
Y70602D01*
X599452D01*
X607420Y68570D02*
Y78730D01*
X617580D01*
Y68570D01*
X607420D01*
X609452Y70602D02*
Y76698D01*
X615548D01*
Y70602D01*
X609452D01*
X536120Y36770D02*
Y46930D01*
X546280D01*
Y36770D01*
X536120D01*
X538152Y38802D02*
Y44898D01*
X544248D01*
Y38802D01*
X538152D01*
X558820Y68570D02*
Y78730D01*
X568980D01*
Y68570D01*
X558820D01*
X560852Y70602D02*
Y76698D01*
X566948D01*
Y70602D01*
X560852D01*
X558820Y55570D02*
Y65730D01*
X568980D01*
Y55570D01*
X558820D01*
X560852Y57602D02*
Y63698D01*
X566948D01*
Y57602D01*
X560852D01*
X568820Y68570D02*
Y78730D01*
X578980D01*
Y68570D01*
X568820D01*
X570852Y70602D02*
Y76698D01*
X576948D01*
Y70602D01*
X570852D01*
X627920Y192920D02*
Y203080D01*
X638080D01*
Y192920D01*
X627920D01*
X629952Y194952D02*
Y201048D01*
X636048D01*
Y194952D01*
X629952D01*
X607420Y42570D02*
Y52730D01*
X617580D01*
Y42570D01*
X607420D01*
X609452Y44602D02*
Y50698D01*
X615548D01*
Y44602D01*
X609452D01*
X630120Y49470D02*
Y59630D01*
X640280D01*
Y49470D01*
X630120D01*
X632152Y51502D02*
Y57598D01*
X638248D01*
Y51502D01*
X632152D01*
X597420Y42570D02*
Y52730D01*
X607580D01*
Y42570D01*
X597420D01*
X599452Y44602D02*
Y50698D01*
X605548D01*
Y44602D01*
X599452D01*
X630120Y36770D02*
Y46930D01*
X640280D01*
Y36770D01*
X630120D01*
X632152Y38802D02*
Y44898D01*
X638248D01*
Y38802D01*
X632152D01*
X630120Y24070D02*
Y34230D01*
X640280D01*
Y24070D01*
X630120D01*
X632152Y26102D02*
Y32198D01*
X638248D01*
Y26102D01*
X632152D01*
X630120Y62170D02*
Y72330D01*
X640280D01*
Y62170D01*
X630120D01*
X632152Y64202D02*
Y70298D01*
X638248D01*
Y64202D01*
X632152D01*
X621220Y15170D02*
Y25330D01*
X631380D01*
Y15170D01*
X621220D01*
X623252Y17202D02*
Y23298D01*
X629348D01*
Y17202D01*
X623252D01*
X390920Y16920D02*
Y27080D01*
X401080D01*
Y16920D01*
X390920D01*
X392952Y18952D02*
Y25048D01*
X399048D01*
Y18952D01*
X392952D01*
X557720Y15170D02*
Y25330D01*
X567880D01*
Y15170D01*
X557720D01*
X559752Y17202D02*
Y23298D01*
X565848D01*
Y17202D01*
X559752D01*
X545020Y15170D02*
Y25330D01*
X555180D01*
Y15170D01*
X545020D01*
X547052Y17202D02*
Y23298D01*
X553148D01*
Y17202D01*
X547052D01*
X581120Y15066D02*
Y25226D01*
X591280D01*
Y15066D01*
X581120D01*
X583152Y17098D02*
Y23194D01*
X589248D01*
Y17098D01*
X583152D01*
X570420Y15170D02*
Y25330D01*
X580580D01*
Y15170D01*
X570420D01*
X572452Y17202D02*
Y23298D01*
X578548D01*
Y17202D01*
X572452D01*
X595820Y15170D02*
Y25330D01*
X605980D01*
Y15170D01*
X595820D01*
X597852Y17202D02*
Y23298D01*
X603948D01*
Y17202D01*
X597852D01*
X608520Y15170D02*
Y25330D01*
X618680D01*
Y15170D01*
X608520D01*
X610552Y17202D02*
Y23298D01*
X616648D01*
Y17202D01*
X610552D01*
X374920Y2920D02*
Y13080D01*
X385080D01*
Y2920D01*
X374920D01*
X376952Y4952D02*
Y11048D01*
X383048D01*
Y4952D01*
X376952D01*
X689920Y73920D02*
Y84080D01*
X700080D01*
Y73920D01*
X689920D01*
X691952Y75952D02*
Y82048D01*
X698048D01*
Y75952D01*
X691952D01*
X661920Y60920D02*
Y71080D01*
X672080D01*
Y60920D01*
X661920D01*
X663952Y62952D02*
Y69048D01*
X670048D01*
Y62952D01*
X663952D01*
X649920Y101920D02*
Y112080D01*
X660080D01*
Y101920D01*
X649920D01*
X651952Y103952D02*
Y110048D01*
X658048D01*
Y103952D01*
X651952D01*
X685920Y178920D02*
Y189080D01*
X696080D01*
Y178920D01*
X685920D01*
X687952Y180952D02*
Y187048D01*
X694048D01*
Y180952D01*
X687952D01*
X638920Y74920D02*
Y85080D01*
X649080D01*
Y74920D01*
X638920D01*
X640952Y76952D02*
Y83048D01*
X647048D01*
Y76952D01*
X640952D01*
X685920Y118920D02*
Y129080D01*
X696080D01*
Y118920D01*
X685920D01*
X687952Y120952D02*
Y127048D01*
X694048D01*
Y120952D01*
X687952D01*
X685920Y158920D02*
Y169080D01*
X696080D01*
Y158920D01*
X685920D01*
X687952Y160952D02*
Y167048D01*
X694048D01*
Y160952D01*
X687952D01*
X685920Y138920D02*
Y149080D01*
X696080D01*
Y138920D01*
X685920D01*
X687952Y140952D02*
Y147048D01*
X694048D01*
Y140952D01*
X687952D01*
X50920Y683920D02*
Y694080D01*
X61080D01*
Y683920D01*
X50920D01*
X52952Y685952D02*
Y692048D01*
X59048D01*
Y685952D01*
X52952D01*
X110920Y774920D02*
Y785080D01*
X121080D01*
Y774920D01*
X110920D01*
X112952Y776952D02*
Y783048D01*
X119048D01*
Y776952D01*
X112952D01*
X110920Y788920D02*
Y799080D01*
X121080D01*
Y788920D01*
X110920D01*
X112952Y790952D02*
Y797048D01*
X119048D01*
Y790952D01*
X112952D01*
X42920Y774920D02*
Y785080D01*
X53080D01*
Y774920D01*
X42920D01*
X44952Y776952D02*
Y783048D01*
X51048D01*
Y776952D01*
X44952D01*
X42920Y788920D02*
Y799080D01*
X53080D01*
Y788920D01*
X42920D01*
X44952Y790952D02*
Y797048D01*
X51048D01*
Y790952D01*
X44952D01*
X32920Y674920D02*
Y685080D01*
X43080D01*
Y674920D01*
X32920D01*
X34952Y676952D02*
Y683048D01*
X41048D01*
Y676952D01*
X34952D01*
X59920Y640920D02*
Y651080D01*
X70080D01*
Y640920D01*
X59920D01*
X61952Y642952D02*
Y649048D01*
X68048D01*
Y642952D01*
X61952D01*
X68920Y616920D02*
Y627080D01*
X79080D01*
Y616920D01*
X68920D01*
X70952Y618952D02*
Y625048D01*
X77048D01*
Y618952D01*
X70952D01*
X49920Y660920D02*
Y671080D01*
X60080D01*
Y660920D01*
X49920D01*
X51952Y662952D02*
Y669048D01*
X58048D01*
Y662952D01*
X51952D01*
X49920Y640920D02*
Y651080D01*
X60080D01*
Y640920D01*
X49920D01*
X51952Y642952D02*
Y649048D01*
X58048D01*
Y642952D01*
X51952D01*
X35920Y582920D02*
Y593080D01*
X46080D01*
Y582920D01*
X35920D01*
X37952Y584952D02*
Y591048D01*
X44048D01*
Y584952D01*
X37952D01*
X50920Y524920D02*
Y535080D01*
X61080D01*
Y524920D01*
X50920D01*
X52952Y526952D02*
Y533048D01*
X59048D01*
Y526952D01*
X52952D01*
X16920Y500920D02*
Y511080D01*
X27080D01*
Y500920D01*
X16920D01*
X18952Y502952D02*
Y509048D01*
X25048D01*
Y502952D01*
X18952D01*
X121920Y367920D02*
Y378080D01*
X132080D01*
Y367920D01*
X121920D01*
X123952Y369952D02*
Y376048D01*
X130048D01*
Y369952D01*
X123952D01*
X116920Y388920D02*
Y399080D01*
X127080D01*
Y388920D01*
X116920D01*
X118952Y390952D02*
Y397048D01*
X125048D01*
Y390952D01*
X118952D01*
X126920Y395920D02*
Y406080D01*
X137080D01*
Y395920D01*
X126920D01*
X128952Y397952D02*
Y404048D01*
X135048D01*
Y397952D01*
X128952D01*
X121420Y455642D02*
Y465802D01*
X131580D01*
Y455642D01*
X121420D01*
X123452Y457674D02*
Y463770D01*
X129548D01*
Y457674D01*
X123452D01*
X75420Y524420D02*
Y534580D01*
X85580D01*
Y524420D01*
X75420D01*
X77452Y526452D02*
Y532548D01*
X83548D01*
Y526452D01*
X77452D01*
X58420Y307420D02*
Y317580D01*
X68580D01*
Y307420D01*
X58420D01*
X60452Y309452D02*
Y315548D01*
X66548D01*
Y309452D01*
X60452D01*
X32920Y378920D02*
Y389080D01*
X43080D01*
Y378920D01*
X32920D01*
X34952Y380952D02*
Y387048D01*
X41048D01*
Y380952D01*
X34952D01*
X70920Y411920D02*
Y422080D01*
X81080D01*
Y411920D01*
X70920D01*
X72952Y413952D02*
Y420048D01*
X79048D01*
Y413952D01*
X72952D01*
X95920Y411920D02*
Y422080D01*
X106080D01*
Y411920D01*
X95920D01*
X97952Y413952D02*
Y420048D01*
X104048D01*
Y413952D01*
X97952D01*
X36418Y437422D02*
Y447582D01*
X46578D01*
Y437422D01*
X36418D01*
X38450Y439454D02*
Y445550D01*
X44546D01*
Y439454D01*
X38450D01*
X50420Y481420D02*
Y491580D01*
X60580D01*
Y481420D01*
X50420D01*
X52452Y483452D02*
Y489548D01*
X58548D01*
Y483452D01*
X52452D01*
X82143Y241143D02*
Y251303D01*
X92303D01*
Y241143D01*
X82143D01*
X84175Y243175D02*
Y249271D01*
X90271D01*
Y243175D01*
X84175D01*
X131920Y265920D02*
Y276080D01*
X142080D01*
Y265920D01*
X131920D01*
X133952Y267952D02*
Y274048D01*
X140048D01*
Y267952D01*
X133952D01*
X128920Y235920D02*
Y246080D01*
X139080D01*
Y235920D01*
X128920D01*
X130952Y237952D02*
Y244048D01*
X137048D01*
Y237952D01*
X130952D01*
X108920Y299920D02*
Y310080D01*
X119080D01*
Y299920D01*
X108920D01*
X110952Y301952D02*
Y308048D01*
X117048D01*
Y301952D01*
X110952D01*
X37920Y249920D02*
Y260080D01*
X48080D01*
Y249920D01*
X37920D01*
X39952Y251952D02*
Y258048D01*
X46048D01*
Y251952D01*
X39952D01*
X41920Y276920D02*
Y287080D01*
X52080D01*
Y276920D01*
X41920D01*
X43952Y278952D02*
Y285048D01*
X50048D01*
Y278952D01*
X43952D01*
X56920Y237920D02*
Y248080D01*
X67080D01*
Y237920D01*
X56920D01*
X58952Y239952D02*
Y246048D01*
X65048D01*
Y239952D01*
X58952D01*
X113920Y194920D02*
Y205080D01*
X124080D01*
Y194920D01*
X113920D01*
X115952Y196952D02*
Y203048D01*
X122048D01*
Y196952D01*
X115952D01*
X83760Y162034D02*
Y172194D01*
X93920D01*
Y162034D01*
X83760D01*
X85792Y164066D02*
Y170162D01*
X91888D01*
Y164066D01*
X85792D01*
X142420Y224420D02*
Y234580D01*
X152580D01*
Y224420D01*
X142420D01*
X144452Y226452D02*
Y232548D01*
X150548D01*
Y226452D01*
X144452D01*
X404920Y1301920D02*
Y1312080D01*
X415080D01*
Y1301920D01*
X404920D01*
X406952Y1303952D02*
Y1310048D01*
X413048D01*
Y1303952D01*
X406952D01*
X151920Y101920D02*
Y112080D01*
X162080D01*
Y101920D01*
X151920D01*
X153952Y103952D02*
Y110048D01*
X160048D01*
Y103952D01*
X153952D01*
X201920Y115920D02*
Y126080D01*
X212080D01*
Y115920D01*
X201920D01*
X203952Y117952D02*
Y124048D01*
X210048D01*
Y117952D01*
X203952D01*
X270920Y110920D02*
Y121080D01*
X281080D01*
Y110920D01*
X270920D01*
X272952Y112952D02*
Y119048D01*
X279048D01*
Y112952D01*
X272952D01*
X276920Y75920D02*
Y86080D01*
X287080D01*
Y75920D01*
X276920D01*
X278952Y77952D02*
Y84048D01*
X285048D01*
Y77952D01*
X278952D01*
X276920Y89920D02*
Y100080D01*
X287080D01*
Y89920D01*
X276920D01*
X278952Y91952D02*
Y98048D01*
X285048D01*
Y91952D01*
X278952D01*
X208920Y89920D02*
Y100080D01*
X219080D01*
Y89920D01*
X208920D01*
X210952Y91952D02*
Y98048D01*
X217048D01*
Y91952D01*
X210952D01*
X214920Y169920D02*
Y180080D01*
X225080D01*
Y169920D01*
X214920D01*
X216952Y171952D02*
Y178048D01*
X223048D01*
Y171952D01*
X216952D01*
X261920Y206920D02*
Y217080D01*
X272080D01*
Y206920D01*
X261920D01*
X263952Y208952D02*
Y215048D01*
X270048D01*
Y208952D01*
X263952D01*
X247920Y206920D02*
Y217080D01*
X258080D01*
Y206920D01*
X247920D01*
X249952Y208952D02*
Y215048D01*
X256048D01*
Y208952D01*
X249952D01*
X219920Y64920D02*
Y75080D01*
X230080D01*
Y64920D01*
X219920D01*
X221952Y66952D02*
Y73048D01*
X228048D01*
Y66952D01*
X221952D01*
X448920Y212920D02*
Y223080D01*
X459080D01*
Y212920D01*
X448920D01*
X450952Y214952D02*
Y221048D01*
X457048D01*
Y214952D01*
X450952D01*
X778920Y366920D02*
Y377080D01*
X789080D01*
Y366920D01*
X778920D01*
X780952Y368952D02*
Y375048D01*
X787048D01*
Y368952D01*
X780952D01*
X887920Y306920D02*
Y317080D01*
X898080D01*
Y306920D01*
X887920D01*
X889952Y308952D02*
Y315048D01*
X896048D01*
Y308952D01*
X889952D01*
X869920Y291920D02*
Y302080D01*
X880080D01*
Y291920D01*
X869920D01*
X871952Y293952D02*
Y300048D01*
X878048D01*
Y293952D01*
X871952D01*
X856920Y316920D02*
Y327080D01*
X867080D01*
Y316920D01*
X856920D01*
X858952Y318952D02*
Y325048D01*
X865048D01*
Y318952D01*
X858952D01*
X820920Y316920D02*
Y327080D01*
X831080D01*
Y316920D01*
X820920D01*
X822952Y318952D02*
Y325048D01*
X829048D01*
Y318952D01*
X822952D01*
X827920Y349920D02*
Y360080D01*
X838080D01*
Y349920D01*
X827920D01*
X829952Y351952D02*
Y358048D01*
X836048D01*
Y351952D01*
X829952D01*
X844920Y360920D02*
Y371080D01*
X855080D01*
Y360920D01*
X844920D01*
X846952Y362952D02*
Y369048D01*
X853048D01*
Y362952D01*
X846952D01*
X84920Y617081D02*
Y627241D01*
X95080D01*
Y617081D01*
X84920D01*
X86952Y619113D02*
Y625209D01*
X93048D01*
Y619113D01*
X86952D01*
X214920Y718920D02*
Y729080D01*
X225080D01*
Y718920D01*
X214920D01*
X216952Y720952D02*
Y727048D01*
X223048D01*
Y720952D01*
X216952D01*
X206920Y660920D02*
Y671080D01*
X217080D01*
Y660920D01*
X206920D01*
X208952Y662952D02*
Y669048D01*
X215048D01*
Y662952D01*
X208952D01*
X214920Y583920D02*
Y594080D01*
X225080D01*
Y583920D01*
X214920D01*
X216952Y585952D02*
Y592048D01*
X223048D01*
Y585952D01*
X216952D01*
X223920Y603920D02*
Y614080D01*
X234080D01*
Y603920D01*
X223920D01*
X225952Y605952D02*
Y612048D01*
X232048D01*
Y605952D01*
X225952D01*
X222755Y525920D02*
Y536080D01*
X232915D01*
Y525920D01*
X222755D01*
X224787Y527952D02*
Y534048D01*
X230883D01*
Y527952D01*
X224787D01*
X171920Y554920D02*
Y565080D01*
X182080D01*
Y554920D01*
X171920D01*
X173952Y556952D02*
Y563048D01*
X180048D01*
Y556952D01*
X173952D01*
X271923Y514350D02*
Y524510D01*
X282083D01*
Y514350D01*
X271923D01*
X273955Y516382D02*
Y522478D01*
X280051D01*
Y516382D01*
X273955D01*
X271923Y543560D02*
Y553720D01*
X282083D01*
Y543560D01*
X271923D01*
X273955Y545592D02*
Y551688D01*
X280051D01*
Y545592D01*
X273955D01*
X271508Y528853D02*
Y539013D01*
X281668D01*
Y528853D01*
X271508D01*
X273540Y530885D02*
Y536981D01*
X279636D01*
Y530885D01*
X273540D01*
X931710Y897130D02*
Y907290D01*
X941870D01*
Y897130D01*
X931710D01*
X933742Y899162D02*
Y905258D01*
X939838D01*
Y899162D01*
X933742D01*
D163*
X690080Y618000D02*
G03*
X690080Y618000I-5080J0D01*
G01*
X653280Y369680D02*
G03*
X653280Y369680I-5080J0D01*
G01*
X637540Y598170D02*
G03*
X637540Y598170I-5080J0D01*
G01*
X519580Y725500D02*
G03*
X519580Y725500I-5080J0D01*
G01*
X414080Y252000D02*
G03*
X414080Y252000I-5080J0D01*
G01*
X915080Y270000D02*
G03*
X915080Y270000I-5080J0D01*
G01*
X24953Y942873D02*
G03*
X24953Y942873I-5080J0D01*
G01*
X833080Y438000D02*
G03*
X833080Y438000I-5080J0D01*
G01*
X898080Y831000D02*
G03*
X898080Y831000I-5080J0D01*
G01*
X873957Y912877D02*
G03*
X873957Y912877I-5080J0D01*
G01*
X988080Y902000D02*
G03*
X988080Y902000I-5080J0D01*
G01*
X873957Y849877D02*
G03*
X873957Y849877I-5080J0D01*
G01*
X944207Y883127D02*
G03*
X944207Y883127I-5080J0D01*
G01*
M02*
