G04*
G04 #@! TF.GenerationSoftware,Altium Limited,Altium Designer,23.1.1 (15)*
G04*
G04 Layer_Color=128*
%FSLAX44Y44*%
%MOMM*%
G71*
G04*
G04 #@! TF.SameCoordinates,789140C7-5683-4E61-8DB6-192B0B8D3B33*
G04*
G04*
G04 #@! TF.FilePolarity,Positive*
G04*
G01*
G75*
%ADD17C,0.1270*%
D17*
X773848Y549556D02*
X781848D01*
X777848Y545556D02*
Y553556D01*
X773848Y473556D02*
X781848D01*
X777848Y469556D02*
Y477556D01*
X759270Y407924D02*
X767270D01*
X763270Y403924D02*
Y411924D01*
X759270Y395224D02*
X767270D01*
X763270Y391224D02*
Y399224D01*
X759270Y382524D02*
X767270D01*
X763270Y378524D02*
Y386524D01*
X959710Y1158480D02*
X970210D01*
X964960Y1153230D02*
Y1163730D01*
X959710Y1128480D02*
X970210D01*
X964960Y1123230D02*
Y1133730D01*
X929710Y1128480D02*
X940210D01*
X934960Y1123230D02*
Y1133730D01*
X929710Y1158480D02*
X940210D01*
X934960Y1153230D02*
Y1163730D01*
X929710Y1188480D02*
X940210D01*
X934960Y1183230D02*
Y1193730D01*
X929710Y1218480D02*
X940210D01*
X934960Y1213230D02*
Y1223730D01*
X959710Y1218480D02*
X970210D01*
X964960Y1213230D02*
Y1223730D01*
X959710Y1188480D02*
X970210D01*
X964960Y1183230D02*
Y1193730D01*
X969510Y1231280D02*
X980010D01*
X974760Y1226030D02*
Y1236530D01*
X955698Y942999D02*
X965898D01*
X960798Y937899D02*
Y948099D01*
X930298Y942999D02*
X940498D01*
X935398Y937899D02*
Y948099D01*
X904898Y942999D02*
X915098D01*
X909998Y937899D02*
Y948099D01*
X879499Y942999D02*
X889698D01*
X884598Y937899D02*
Y948099D01*
X854099Y942999D02*
X864298D01*
X859199Y937899D02*
Y948099D01*
X362530Y520700D02*
X371530D01*
X367030Y516200D02*
Y525200D01*
X362530Y546100D02*
X371530D01*
X367030Y541600D02*
Y550600D01*
X362530Y571500D02*
X371530D01*
X367030Y567000D02*
Y576000D01*
X362530Y596900D02*
X371530D01*
X367030Y592400D02*
Y601400D01*
X625775Y926852D02*
X641775D01*
X633775Y918852D02*
Y934852D01*
X786174Y949152D02*
X796374D01*
X791274Y944052D02*
Y954252D01*
X751174Y949152D02*
X761374D01*
X756274Y944052D02*
Y954252D01*
X716174Y949152D02*
X726374D01*
X721274Y944052D02*
Y954252D01*
X681174Y949152D02*
X691374D01*
X686274Y944052D02*
Y954252D01*
X646174Y949152D02*
X656374D01*
X651274Y944052D02*
Y954252D01*
X611174Y949152D02*
X621374D01*
X616274Y944052D02*
Y954252D01*
X786174Y995152D02*
X796374D01*
X791274Y990052D02*
Y1000252D01*
X751174Y995152D02*
X761374D01*
X756274Y990052D02*
Y1000252D01*
X716174Y995152D02*
X726374D01*
X721274Y990052D02*
Y1000252D01*
X681174Y995152D02*
X691374D01*
X686274Y990052D02*
Y1000252D01*
X646174Y995152D02*
X656374D01*
X651274Y990052D02*
Y1000252D01*
X611174Y995152D02*
X621374D01*
X616274Y990052D02*
Y1000252D01*
X433902Y1396401D02*
X444102D01*
X439002Y1391301D02*
Y1401501D01*
X459302Y1396401D02*
X469502D01*
X464402Y1391301D02*
Y1401501D01*
X484702Y1371001D02*
X494902D01*
X489802Y1365901D02*
Y1376101D01*
X510102Y1371001D02*
X520302D01*
X515201Y1365901D02*
Y1376101D01*
X484702Y1396401D02*
X494902D01*
X489802Y1391301D02*
Y1401501D01*
X510102Y1396401D02*
X520302D01*
X515201Y1391301D02*
Y1401501D01*
X535502Y1396401D02*
X545702D01*
X540602Y1391301D02*
Y1401501D01*
X560902Y1396401D02*
X571102D01*
X566002Y1391301D02*
Y1401501D01*
X433902Y1371001D02*
X444102D01*
X439002Y1365901D02*
Y1376101D01*
X459302Y1371001D02*
X469502D01*
X464402Y1365901D02*
Y1376101D01*
X535502Y1371001D02*
X545702D01*
X540602Y1365901D02*
Y1376101D01*
X560902Y1371001D02*
X571102D01*
X566002Y1365901D02*
Y1376101D01*
X503918Y1251801D02*
X514078D01*
X508998Y1246721D02*
Y1256881D01*
X503918Y1226401D02*
X514078D01*
X508998Y1221321D02*
Y1231481D01*
X503918Y1201001D02*
X514078D01*
X508998Y1195921D02*
Y1206081D01*
X503918Y1175601D02*
X514078D01*
X508998Y1170521D02*
Y1180681D01*
X24000Y40000D02*
X56000D01*
X40000Y24000D02*
Y56000D01*
X24000Y1018500D02*
X56000D01*
X40000Y1002500D02*
Y1034500D01*
X194000Y1132000D02*
X226000D01*
X210000Y1116000D02*
Y1148000D01*
X269000Y1392000D02*
X301000D01*
X285000Y1376000D02*
Y1408000D01*
X944000Y160000D02*
X976000D01*
X960000Y144000D02*
Y176000D01*
X809000Y1392000D02*
X841000D01*
X825000Y1376000D02*
Y1408000D01*
X39899Y891197D02*
X50099D01*
X44999Y886097D02*
Y896297D01*
X39899Y865797D02*
X50099D01*
X44999Y860697D02*
Y870897D01*
X260120Y271780D02*
X263120D01*
X261620Y270280D02*
Y273280D01*
X249960Y320040D02*
X252960D01*
X251460Y318540D02*
Y321540D01*
X282727Y279147D02*
X285727D01*
X284227Y277647D02*
Y280647D01*
X288060Y370840D02*
X291060D01*
X289560Y369340D02*
Y372340D01*
X275360Y391160D02*
X278360D01*
X276860Y389660D02*
Y392660D01*
X430300Y431800D02*
X433300D01*
X431800Y430300D02*
Y433300D01*
X534440Y467360D02*
X537440D01*
X535940Y465860D02*
Y468860D01*
X295680Y383476D02*
X298680D01*
X297180Y381976D02*
Y384976D01*
X317731Y397750D02*
X320731D01*
X319231Y396250D02*
Y399250D01*
X59320Y408820D02*
X62320D01*
X60820Y407320D02*
Y410320D01*
X36420Y411920D02*
X39420D01*
X37920Y410420D02*
Y413420D01*
X209320Y294640D02*
X212320D01*
X210820Y293140D02*
Y296140D01*
X360171Y300140D02*
X363171D01*
X361671Y298640D02*
Y301640D01*
X743482Y655828D02*
X746482D01*
X744982Y654328D02*
Y657328D01*
X734592Y644144D02*
X737592D01*
X736092Y642644D02*
Y645644D01*
X804310Y725546D02*
X807310D01*
X805810Y724046D02*
Y727046D01*
X779550Y610362D02*
X782550D01*
X781050Y608862D02*
Y611862D01*
X660170Y707778D02*
X663170D01*
X661670Y706278D02*
Y709278D01*
X660170Y700278D02*
X663170D01*
X661670Y698778D02*
Y701778D01*
X481250Y621030D02*
X484250D01*
X482750Y619530D02*
Y622530D01*
X488750Y621030D02*
X491750D01*
X490250Y619530D02*
Y622530D01*
X523370Y676000D02*
X526370D01*
X524870Y674500D02*
Y677500D01*
X519200Y684530D02*
X522200D01*
X520700Y683030D02*
Y686030D01*
X795806Y713806D02*
X798806D01*
X797306Y712306D02*
Y715306D01*
X751610Y685546D02*
X754610D01*
X753110Y684046D02*
Y687046D01*
X741450Y618998D02*
X744450D01*
X742950Y617498D02*
Y620498D01*
X765834Y692150D02*
X768834D01*
X767334Y690650D02*
Y693650D01*
X792250Y661162D02*
X795250D01*
X793750Y659662D02*
Y662662D01*
X708900Y672846D02*
X711900D01*
X710400Y671346D02*
Y674346D01*
X692174Y662432D02*
X695174D01*
X693674Y660932D02*
Y663932D01*
X682500Y618000D02*
X687500D01*
X685000Y615500D02*
Y620500D01*
X707668Y632968D02*
X710668D01*
X709168Y631468D02*
Y634468D01*
X388644Y483108D02*
X391644D01*
X390144Y481608D02*
Y484608D01*
X367562Y469392D02*
X370562D01*
X369062Y467892D02*
Y470892D01*
X390510Y387350D02*
X393510D01*
X392010Y385850D02*
Y388850D01*
X439698Y407162D02*
X442698D01*
X441198Y405662D02*
Y408662D01*
X435546Y425616D02*
X438546D01*
X437046Y424116D02*
Y427116D01*
X554760Y435610D02*
X557760D01*
X556260Y434110D02*
Y437110D01*
X448080Y416306D02*
X451080D01*
X449580Y414806D02*
Y417806D01*
X532662Y479060D02*
X535662D01*
X534162Y477560D02*
Y480560D01*
X559078Y565912D02*
X562078D01*
X560578Y564412D02*
Y567412D01*
X549426Y568960D02*
X552426D01*
X550926Y567460D02*
Y570460D01*
X544600Y575564D02*
X547600D01*
X546100Y574064D02*
Y577064D01*
X413790Y434340D02*
X416790D01*
X415290Y432840D02*
Y435840D01*
X572032Y652780D02*
X575032D01*
X573532Y651280D02*
Y654280D01*
X789456Y531114D02*
X792456D01*
X790956Y529614D02*
Y532614D01*
X603528Y455930D02*
X606528D01*
X605028Y454430D02*
Y457430D01*
X265708Y777494D02*
X268708D01*
X267208Y775994D02*
Y778994D01*
X223529Y878601D02*
X226529D01*
X225029Y877101D02*
Y880101D01*
X228370Y795274D02*
X231370D01*
X229870Y793774D02*
Y796774D01*
X619530Y552450D02*
X622530D01*
X621030Y550950D02*
Y553950D01*
X499896Y623570D02*
X502896D01*
X501396Y622070D02*
Y625070D01*
X593876Y404622D02*
X596876D01*
X595376Y403122D02*
Y406122D01*
X612500Y1085000D02*
X615500D01*
X614000Y1083500D02*
Y1086500D01*
X607849Y630431D02*
X610849D01*
X609349Y628931D02*
Y631931D01*
X584930Y642056D02*
X587930D01*
X586430Y640556D02*
Y643556D01*
X615720Y620014D02*
X618720D01*
X617220Y618514D02*
Y621514D01*
X272058Y365506D02*
X275058D01*
X273558Y364006D02*
Y367006D01*
X465860Y741680D02*
X468860D01*
X467360Y740180D02*
Y743180D01*
X474500Y774000D02*
X477500D01*
X476000Y772500D02*
Y775500D01*
X768120Y828040D02*
X771120D01*
X769620Y826540D02*
Y829540D01*
X666520Y840740D02*
X669520D01*
X668020Y839240D02*
Y842240D01*
X636040Y828040D02*
X639040D01*
X637540Y826540D02*
Y829540D01*
X650772Y649986D02*
X653772D01*
X652272Y648486D02*
Y651486D01*
X854480Y688086D02*
X857480D01*
X855980Y686586D02*
Y689586D01*
X689380Y350520D02*
X692380D01*
X690880Y349020D02*
Y352020D01*
X328700Y322580D02*
X331700D01*
X330200Y321080D02*
Y324080D01*
X358500Y379000D02*
X361500D01*
X360000Y377500D02*
Y380500D01*
X453160Y1043940D02*
X456160D01*
X454660Y1042440D02*
Y1045440D01*
X671600Y792480D02*
X674600D01*
X673100Y790980D02*
Y793980D01*
X674140Y784860D02*
X677140D01*
X675640Y783360D02*
Y786360D01*
X661440Y502920D02*
X664440D01*
X662940Y501420D02*
Y504420D01*
X460780Y904240D02*
X463780D01*
X462280Y902740D02*
Y905740D01*
X609794Y1044596D02*
X612794D01*
X611294Y1043096D02*
Y1046096D01*
X661440Y487680D02*
X664440D01*
X662940Y486180D02*
Y489180D01*
X470940Y638810D02*
X473940D01*
X472440Y637310D02*
Y640310D01*
X468400Y627380D02*
X471400D01*
X469900Y625880D02*
Y628880D01*
X641120Y1074420D02*
X644120D01*
X642620Y1072920D02*
Y1075920D01*
X503960Y515620D02*
X506960D01*
X505460Y514120D02*
Y517120D01*
X487371Y566341D02*
X490371D01*
X488871Y564841D02*
Y567841D01*
X489100Y877950D02*
X492100D01*
X490600Y876450D02*
Y879450D01*
X620800Y1043940D02*
X623800D01*
X622300Y1042440D02*
Y1045440D01*
X455700Y1013460D02*
X458700D01*
X457200Y1011960D02*
Y1014960D01*
X817977Y1055000D02*
X820977D01*
X819477Y1053500D02*
Y1056500D01*
X689380Y1082040D02*
X692380D01*
X690880Y1080540D02*
Y1083540D01*
X651280Y1071880D02*
X654280D01*
X652780Y1070380D02*
Y1073380D01*
X454430Y623570D02*
X457430D01*
X455930Y622070D02*
Y625070D01*
X531900Y388620D02*
X534900D01*
X533400Y387120D02*
Y390120D01*
X547140Y388620D02*
X550140D01*
X548640Y387120D02*
Y390120D01*
X671600Y419100D02*
X674600D01*
X673100Y417600D02*
Y420600D01*
X645700Y369680D02*
X650700D01*
X648200Y367180D02*
Y372180D01*
X464590Y367680D02*
X467590D01*
X466090Y366180D02*
Y369180D01*
X673500Y370000D02*
X676500D01*
X675000Y368500D02*
Y371500D01*
X631500Y375000D02*
X634500D01*
X633000Y373500D02*
Y376500D01*
X196620Y299720D02*
X199620D01*
X198120Y298220D02*
Y301220D01*
X408075Y686435D02*
X411075D01*
X409575Y684935D02*
Y687935D01*
X516660Y661670D02*
X519660D01*
X518160Y660170D02*
Y663170D01*
X243610Y913130D02*
X246610D01*
X245110Y911630D02*
Y914630D01*
X235715Y906780D02*
X238715D01*
X237215Y905280D02*
Y908280D01*
X102500Y167000D02*
X105500D01*
X104000Y165500D02*
Y168500D01*
X813840Y568960D02*
X816840D01*
X815340Y567460D02*
Y570460D01*
X500229Y615871D02*
X503229D01*
X501729Y614371D02*
Y617371D01*
X695730Y473710D02*
X698730D01*
X697230Y472210D02*
Y475210D01*
X564920Y509270D02*
X567920D01*
X566420Y507770D02*
Y510770D01*
X387120Y659130D02*
X390120D01*
X388620Y657630D02*
Y660630D01*
X374420Y624840D02*
X377420D01*
X375920Y623340D02*
Y626340D01*
X411250Y563880D02*
X414250D01*
X412750Y562380D02*
Y565380D01*
X396010Y604520D02*
X399010D01*
X397510Y603020D02*
Y606020D01*
X618260Y453390D02*
X621260D01*
X619760Y451890D02*
Y454890D01*
X568730Y427990D02*
X571730D01*
X570230Y426490D02*
Y429490D01*
X429030Y501650D02*
X432030D01*
X430530Y500150D02*
Y503150D01*
X487450Y508000D02*
X490450D01*
X488950Y506500D02*
Y509500D01*
X487450Y516890D02*
X490450D01*
X488950Y515390D02*
Y518390D01*
X396010Y406400D02*
X399010D01*
X397510Y404900D02*
Y407900D01*
X663980Y404598D02*
X666980D01*
X665480Y403097D02*
Y406097D01*
X430300Y336550D02*
X433300D01*
X431800Y335050D02*
Y338050D01*
X657340Y538190D02*
X660340D01*
X658840Y536690D02*
Y539690D01*
X366130Y633130D02*
X369130D01*
X367630Y631630D02*
Y634630D01*
X370610Y792480D02*
X373610D01*
X372110Y790980D02*
Y793980D01*
X369340Y732790D02*
X372340D01*
X370840Y731290D02*
Y734290D01*
X402360Y749300D02*
X405360D01*
X403860Y747800D02*
Y750800D01*
X440832Y602878D02*
X443832D01*
X442332Y601378D02*
Y604378D01*
X657580Y523190D02*
X660580D01*
X659080Y521690D02*
Y524690D01*
X215670Y820420D02*
X218670D01*
X217170Y818920D02*
Y821920D01*
X219480Y796290D02*
X222480D01*
X220980Y794790D02*
Y797790D01*
X219480Y855980D02*
X222480D01*
X220980Y854480D02*
Y857480D01*
X276709Y856059D02*
X279709D01*
X278209Y854559D02*
Y857559D01*
X467130Y538480D02*
X470130D01*
X468630Y536980D02*
Y539980D01*
X477290Y539750D02*
X480290D01*
X478790Y538250D02*
Y541250D01*
X351560Y466090D02*
X354560D01*
X353060Y464590D02*
Y467590D01*
X441730Y648970D02*
X444730D01*
X443230Y647470D02*
Y650470D01*
X474750Y615950D02*
X477750D01*
X476250Y614450D02*
Y617450D01*
X321081Y673258D02*
X324081D01*
X322580Y671758D02*
Y674758D01*
X163600Y877570D02*
X166600D01*
X165100Y876070D02*
Y879070D01*
X488720Y539750D02*
X491720D01*
X490220Y538250D02*
Y541250D01*
X351052Y486410D02*
X354052D01*
X352552Y484910D02*
Y487910D01*
X464280Y573913D02*
X467280D01*
X465779Y572413D02*
Y575414D01*
X554760Y545680D02*
X557760D01*
X556260Y544180D02*
Y547180D01*
X464590Y558800D02*
X467590D01*
X466090Y557300D02*
Y560300D01*
X464590Y566420D02*
X467590D01*
X466090Y564920D02*
Y567920D01*
X464590Y495300D02*
X467590D01*
X466090Y493800D02*
Y496800D01*
X126500Y479000D02*
X129500D01*
X128000Y477500D02*
Y480500D01*
X629960Y598170D02*
X634960D01*
X632460Y595670D02*
Y600670D01*
X511580Y430530D02*
X514580D01*
X513080Y429030D02*
Y432030D01*
X512000Y725500D02*
X517000D01*
X514500Y723000D02*
Y728000D01*
X464220Y504560D02*
X467220D01*
X465720Y503060D02*
Y506060D01*
X517500Y584630D02*
X520500D01*
X519000Y583130D02*
Y586130D01*
X496340Y581660D02*
X499340D01*
X497840Y580160D02*
Y583160D01*
X566190Y546100D02*
X569190D01*
X567690Y544600D02*
Y547600D01*
X572540Y533400D02*
X575540D01*
X574040Y531900D02*
Y534900D01*
X489990Y478790D02*
X492990D01*
X491490Y477290D02*
Y480290D01*
X467130Y711200D02*
X470130D01*
X468630Y709700D02*
Y712700D01*
X817723Y1038210D02*
X820723D01*
X819223Y1036710D02*
Y1039710D01*
X851500Y1054000D02*
X854500D01*
X853000Y1052500D02*
Y1055500D01*
X613180Y1097280D02*
X616180D01*
X614680Y1095780D02*
Y1098780D01*
X430300Y464820D02*
X433300D01*
X431800Y463320D02*
Y466320D01*
X228370Y913130D02*
X231370D01*
X229870Y911630D02*
Y914630D01*
X212715Y913545D02*
X215715D01*
X214215Y912045D02*
Y915045D01*
X358974Y879904D02*
X361974D01*
X360474Y878404D02*
Y881404D01*
X287500Y797560D02*
X290500D01*
X289000Y796060D02*
Y799060D01*
X923000Y434455D02*
X926000D01*
X924500Y432955D02*
Y435955D01*
X108500Y852000D02*
X111500D01*
X110000Y850500D02*
Y853500D01*
X106500Y841000D02*
X109500D01*
X108000Y839500D02*
Y842500D01*
X68500Y841000D02*
X71500D01*
X70000Y839500D02*
Y842500D01*
X81167Y841000D02*
X84167D01*
X82667Y839500D02*
Y842500D01*
X93833Y841000D02*
X96833D01*
X95333Y839500D02*
Y842500D01*
X106500Y936667D02*
X109500D01*
X108000Y935167D02*
Y938167D01*
X106500Y949333D02*
X109500D01*
X108000Y947833D02*
Y950833D01*
X106500Y962000D02*
X109500D01*
X108000Y960500D02*
Y963500D01*
X94500Y973000D02*
X97500D01*
X96000Y971500D02*
Y974500D01*
X82500Y973000D02*
X85500D01*
X84000Y971500D02*
Y974500D01*
X70500Y973000D02*
X73500D01*
X72000Y971500D02*
Y974500D01*
X58500Y973000D02*
X61500D01*
X60000Y971500D02*
Y974500D01*
X46500Y973000D02*
X49500D01*
X48000Y971500D02*
Y974500D01*
X34500Y973000D02*
X37500D01*
X36000Y971500D02*
Y974500D01*
X22500Y973000D02*
X25500D01*
X24000Y971500D02*
Y974500D01*
X12500Y969000D02*
X15500D01*
X14000Y967500D02*
Y970500D01*
X5500Y962000D02*
X8500D01*
X7000Y960500D02*
Y963500D01*
X40500Y912000D02*
X43500D01*
X42000Y910500D02*
Y913500D01*
X29500Y899000D02*
X32500D01*
X31000Y897500D02*
Y900500D01*
X29500Y912000D02*
X32500D01*
X31000Y910500D02*
Y913500D01*
X16500Y867000D02*
X19500D01*
X18000Y865500D02*
Y868500D01*
X23500Y857000D02*
X26500D01*
X25000Y855500D02*
Y858500D01*
X33500Y851000D02*
X36500D01*
X35000Y849500D02*
Y852500D01*
X47500Y851000D02*
X50500D01*
X49000Y849500D02*
Y852500D01*
X57500Y855000D02*
X60500D01*
X59000Y853500D02*
Y856500D01*
X63500Y864000D02*
X66500D01*
X65000Y862500D02*
Y865500D01*
X75500Y864000D02*
X78500D01*
X77000Y862500D02*
Y865500D01*
X102500Y866000D02*
X105500D01*
X104000Y864500D02*
Y867500D01*
X100500Y878000D02*
X103500D01*
X102000Y876500D02*
Y879500D01*
X92500Y886000D02*
X95500D01*
X94000Y884500D02*
Y887500D01*
X83500Y892000D02*
X86500D01*
X85000Y890500D02*
Y893500D01*
X72500Y892000D02*
X75500D01*
X74000Y890500D02*
Y893500D01*
X60500Y892000D02*
X63500D01*
X62000Y890500D02*
Y893500D01*
X60500Y904000D02*
X63500D01*
X62000Y902500D02*
Y905500D01*
X68500Y924000D02*
X71500D01*
X70000Y922500D02*
Y925500D01*
X68500Y914000D02*
X71500D01*
X70000Y912500D02*
Y915500D01*
X80500Y914000D02*
X83500D01*
X82000Y912500D02*
Y915500D01*
X92500Y914000D02*
X95500D01*
X94000Y912500D02*
Y915500D01*
X555500Y1263000D02*
X558500D01*
X557000Y1261500D02*
Y1264500D01*
X622500Y1221000D02*
X625500D01*
X624000Y1219500D02*
Y1222500D01*
X611500Y1231000D02*
X614500D01*
X613000Y1229500D02*
Y1232500D01*
X585500Y1215000D02*
X588500D01*
X587000Y1213500D02*
Y1216500D01*
X106500Y924000D02*
X109500D01*
X108000Y922500D02*
Y925500D01*
X782623Y1023000D02*
X785623D01*
X784123Y1021500D02*
Y1024500D01*
X938300Y1076960D02*
X941300D01*
X939800Y1075460D02*
Y1078460D01*
X902740Y1076960D02*
X905740D01*
X904240Y1075460D02*
Y1078460D01*
X792500Y120000D02*
X795500D01*
X794000Y118500D02*
Y121500D01*
X250976Y457708D02*
X253976D01*
X252476Y456208D02*
Y459208D01*
X144500Y683000D02*
X147500D01*
X146000Y681500D02*
Y684500D01*
X449500Y657000D02*
X452500D01*
X451000Y655500D02*
Y658500D01*
X712240Y802640D02*
X715240D01*
X713740Y801140D02*
Y804140D01*
X377500Y1134000D02*
X380500D01*
X379000Y1132500D02*
Y1135500D01*
X177500Y1163000D02*
X180500D01*
X179000Y1161500D02*
Y1164500D01*
X183500Y1295000D02*
X186500D01*
X185000Y1293500D02*
Y1296500D01*
X403500Y927000D02*
X406500D01*
X405000Y925500D02*
Y928500D01*
X863500Y766000D02*
X866500D01*
X865000Y764500D02*
Y767500D01*
X712240Y853440D02*
X715240D01*
X713740Y851940D02*
Y854940D01*
X798500Y583000D02*
X801500D01*
X800000Y581500D02*
Y584500D01*
X539500Y300000D02*
X542500D01*
X541000Y298500D02*
Y301500D01*
X273500Y594000D02*
X276500D01*
X275000Y592500D02*
Y595500D01*
X242340Y795274D02*
X245340D01*
X243840Y793774D02*
Y796774D01*
X86500Y572000D02*
X89500D01*
X88000Y570500D02*
Y573500D01*
X171500Y407000D02*
X174500D01*
X173000Y405500D02*
Y408500D01*
X356640Y208280D02*
X359640D01*
X358140Y206780D02*
Y209780D01*
X255500Y23000D02*
X258500D01*
X257000Y21500D02*
Y24500D01*
X14500Y85000D02*
X17500D01*
X16000Y83500D02*
Y86500D01*
X91500Y22000D02*
X94500D01*
X93000Y20500D02*
Y23500D01*
X835500Y35000D02*
X838500D01*
X837000Y33500D02*
Y36500D01*
X925500Y129000D02*
X928500D01*
X927000Y127500D02*
Y130500D01*
X983500Y216000D02*
X986500D01*
X985000Y214500D02*
Y217500D01*
X926500Y1205000D02*
X929500D01*
X928000Y1203500D02*
Y1206500D01*
X989100Y1140460D02*
X992100D01*
X990600Y1138960D02*
Y1141960D01*
X974500Y991000D02*
X977500D01*
X976000Y989500D02*
Y992500D01*
X985500Y1289000D02*
X988500D01*
X987000Y1287500D02*
Y1290500D01*
X292500Y955000D02*
X295500D01*
X294000Y953500D02*
Y956500D01*
X267500Y1036000D02*
X270500D01*
X269000Y1034500D02*
Y1037500D01*
X101500Y1027000D02*
X104500D01*
X103000Y1025500D02*
Y1028500D01*
X270500Y1113000D02*
X273500D01*
X272000Y1111500D02*
Y1114500D01*
X884500Y1318000D02*
X887500D01*
X886000Y1316500D02*
Y1319500D01*
X791500Y1420000D02*
X794500D01*
X793000Y1418500D02*
Y1421500D01*
X761500Y1392000D02*
X764500D01*
X763000Y1390500D02*
Y1393500D01*
X791500Y1363000D02*
X794500D01*
X793000Y1361500D02*
Y1364500D01*
X761500Y1270000D02*
X764500D01*
X763000Y1268500D02*
Y1271500D01*
X301500Y1296000D02*
X304500D01*
X303000Y1294500D02*
Y1297500D01*
X287500Y1315000D02*
X290500D01*
X289000Y1313500D02*
Y1316500D01*
X211500Y1303000D02*
X214500D01*
X213000Y1301500D02*
Y1304500D01*
X211500Y1257000D02*
X214500D01*
X213000Y1255500D02*
Y1258500D01*
X284500Y1186000D02*
X287500D01*
X286000Y1184500D02*
Y1187500D01*
X391500Y1218000D02*
X394500D01*
X393000Y1216500D02*
Y1219500D01*
X395500Y1257000D02*
X398500D01*
X397000Y1255500D02*
Y1258500D01*
X349500Y1266000D02*
X352500D01*
X351000Y1264500D02*
Y1267500D01*
X647500Y1286000D02*
X650500D01*
X649000Y1284500D02*
Y1287500D01*
X618500Y1300000D02*
X621500D01*
X620000Y1298500D02*
Y1301500D01*
X599500Y1292000D02*
X602500D01*
X601000Y1290500D02*
Y1293500D01*
X549500Y1322000D02*
X552500D01*
X551000Y1320500D02*
Y1323500D01*
X682500Y1425000D02*
X685500D01*
X684000Y1423500D02*
Y1426500D01*
X585500Y1338000D02*
X588500D01*
X587000Y1336500D02*
Y1339500D01*
X702500Y1324000D02*
X705500D01*
X704000Y1322500D02*
Y1325500D01*
X674500Y1335000D02*
X677500D01*
X676000Y1333500D02*
Y1336500D01*
X663500Y1353000D02*
X666500D01*
X665000Y1351500D02*
Y1354500D01*
X682500Y1374000D02*
X685500D01*
X684000Y1372500D02*
Y1375500D01*
X100500Y489000D02*
X103500D01*
X102000Y487500D02*
Y490500D01*
X487500Y215000D02*
X490500D01*
X489000Y213500D02*
Y216500D01*
X751500Y1397000D02*
X754500D01*
X753000Y1395500D02*
Y1398500D01*
X549023Y1303523D02*
X552023D01*
X550523Y1302023D02*
Y1305023D01*
X681723Y1401223D02*
X684723D01*
X683223Y1399723D02*
Y1402723D01*
X647944Y1223556D02*
X650944D01*
X649444Y1222056D02*
Y1225056D01*
X542500Y1206000D02*
X545500D01*
X544000Y1204500D02*
Y1207500D01*
X628500Y1230500D02*
X631500D01*
X630000Y1229000D02*
Y1232000D01*
X698500Y1234000D02*
X701500D01*
X700000Y1232500D02*
Y1235500D01*
X739500Y1102000D02*
X742500D01*
X741000Y1100500D02*
Y1103500D01*
X723500Y1200000D02*
X726500D01*
X725000Y1198500D02*
Y1201500D01*
X647500Y1203000D02*
X650500D01*
X649000Y1201500D02*
Y1204500D01*
X655500Y1178000D02*
X658500D01*
X657000Y1176500D02*
Y1179500D01*
X649500Y1158000D02*
X652500D01*
X651000Y1156500D02*
Y1159500D01*
X687250Y1283750D02*
X690250D01*
X688750Y1282250D02*
Y1285250D01*
X680934Y1384434D02*
X683934D01*
X682434Y1382934D02*
Y1385934D01*
X704500Y1408000D02*
X707500D01*
X706000Y1406500D02*
Y1409500D01*
X695000Y1257000D02*
X698000D01*
X696500Y1255500D02*
Y1258500D01*
X327500Y1389000D02*
X330500D01*
X329000Y1387500D02*
Y1390500D01*
X567423Y1328923D02*
X570423D01*
X568923Y1327423D02*
Y1330423D01*
X491423Y1328923D02*
X494423D01*
X492923Y1327423D02*
Y1330423D01*
X675500Y1241213D02*
X678500D01*
X677000Y1239713D02*
Y1242713D01*
X591500Y1316000D02*
X594500D01*
X593000Y1314500D02*
Y1317500D01*
X659500Y1338000D02*
X662500D01*
X661000Y1336500D02*
Y1339500D01*
X144500Y157000D02*
X147500D01*
X146000Y155500D02*
Y158500D01*
X72500Y166000D02*
X75500D01*
X74000Y164500D02*
Y167500D01*
X666520Y812800D02*
X669520D01*
X668020Y811300D02*
Y814300D01*
X867500Y1107670D02*
X870500D01*
X869000Y1106170D02*
Y1109170D01*
X792500Y1268735D02*
X795500D01*
X794000Y1267235D02*
Y1270235D01*
X324500Y1202000D02*
X327500D01*
X326000Y1200500D02*
Y1203500D01*
X439500Y1221000D02*
X442500D01*
X441000Y1219500D02*
Y1222500D01*
X216500Y1190000D02*
X219500D01*
X218000Y1188500D02*
Y1191500D01*
X773500Y1229000D02*
X776500D01*
X775000Y1227500D02*
Y1230500D01*
X556500Y1222000D02*
X559500D01*
X558000Y1220500D02*
Y1223500D01*
X900086Y1037000D02*
X903086D01*
X901586Y1035500D02*
Y1038500D01*
X851500Y1029000D02*
X854500D01*
X853000Y1027500D02*
Y1030500D01*
X330500Y634000D02*
X333500D01*
X332000Y632500D02*
Y635500D01*
X871500Y982000D02*
X874500D01*
X873000Y980500D02*
Y983500D01*
X880500Y323000D02*
X883500D01*
X882000Y321500D02*
Y324500D01*
X903800Y998700D02*
X906800D01*
X905300Y997200D02*
Y1000200D01*
X107294Y711864D02*
X110294D01*
X108794Y710364D02*
Y713364D01*
X279500Y212000D02*
X282500D01*
X281000Y210500D02*
Y213500D01*
X280500Y67000D02*
X283500D01*
X282000Y65500D02*
Y68500D01*
X588739Y1394873D02*
X591739D01*
X590238Y1393373D02*
Y1396373D01*
X453739Y1309873D02*
X456739D01*
X455238Y1308373D02*
Y1311373D01*
X151500Y500000D02*
X154500D01*
X153000Y498500D02*
Y501500D01*
X954316Y372000D02*
X957316D01*
X955816Y370500D02*
Y373500D01*
X891500Y779000D02*
X894500D01*
X893000Y777500D02*
Y780500D01*
X575500Y1179000D02*
X578500D01*
X577000Y1177500D02*
Y1180500D01*
X625500Y1171000D02*
X628500D01*
X627000Y1169500D02*
Y1172500D01*
X820500Y1100000D02*
X823500D01*
X822000Y1098500D02*
Y1101500D01*
X218500Y1278000D02*
X221500D01*
X220000Y1276500D02*
Y1279500D01*
X286500Y1300000D02*
X289500D01*
X288000Y1298500D02*
Y1301500D01*
X851500Y1205000D02*
X854500D01*
X853000Y1203500D02*
Y1206500D01*
X783500Y1183000D02*
X786500D01*
X785000Y1181500D02*
Y1184500D01*
X776500Y1367000D02*
X779500D01*
X778000Y1365500D02*
Y1368500D01*
X708213Y1388000D02*
X711213D01*
X709713Y1386500D02*
Y1389500D01*
X708500Y1345000D02*
X711500D01*
X710000Y1343500D02*
Y1346500D01*
X407500Y1192000D02*
X410500D01*
X409000Y1190500D02*
Y1193500D01*
X334500Y1264000D02*
X337500D01*
X336000Y1262500D02*
Y1265500D01*
X340500Y1285000D02*
X343500D01*
X342000Y1283500D02*
Y1286500D01*
X331500Y1310000D02*
X334500D01*
X333000Y1308500D02*
Y1311500D01*
X423500Y1303000D02*
X426500D01*
X425000Y1301500D02*
Y1304500D01*
X410500Y1322000D02*
X413500D01*
X412000Y1320500D02*
Y1323500D01*
X310500Y1422000D02*
X313500D01*
X312000Y1420500D02*
Y1423500D01*
X344500Y1352000D02*
X347500D01*
X346000Y1350500D02*
Y1353500D01*
X415261Y1383127D02*
X418261D01*
X416762Y1381627D02*
Y1384627D01*
X393877Y1409377D02*
X396877D01*
X395377Y1407877D02*
Y1410877D01*
X785646Y491490D02*
X788646D01*
X787146Y489990D02*
Y492990D01*
X581176Y392684D02*
X584176D01*
X582676Y391184D02*
Y394184D01*
X780820Y450088D02*
X783820D01*
X782320Y448588D02*
Y451588D01*
X669568Y459994D02*
X672568D01*
X671068Y458494D02*
Y461494D01*
X989500Y816000D02*
X992500D01*
X991000Y814500D02*
Y817500D01*
X982500Y778000D02*
X985500D01*
X984000Y776500D02*
Y779500D01*
X976500Y656000D02*
X979500D01*
X978000Y654500D02*
Y657500D01*
X979500Y688000D02*
X982500D01*
X981000Y686500D02*
Y689500D01*
X958500Y702000D02*
X961500D01*
X960000Y700500D02*
Y703500D01*
X978500Y716000D02*
X981500D01*
X980000Y714500D02*
Y717500D01*
X883500Y669000D02*
X886500D01*
X885000Y667500D02*
Y670500D01*
X849500Y637000D02*
X852500D01*
X851000Y635500D02*
Y638500D01*
X849500Y467000D02*
X852500D01*
X851000Y465500D02*
Y468500D01*
X169500Y543000D02*
X172500D01*
X171000Y541500D02*
Y544500D01*
X570500Y756000D02*
X573500D01*
X572000Y754500D02*
Y757500D01*
X549500Y743000D02*
X552500D01*
X551000Y741500D02*
Y744500D01*
X570500Y729000D02*
X573500D01*
X572000Y727500D02*
Y730500D01*
X591500Y743000D02*
X594500D01*
X593000Y741500D02*
Y744500D01*
X563500Y800000D02*
X566500D01*
X565000Y798500D02*
Y801500D01*
X901623Y1049877D02*
X904623D01*
X903123Y1048377D02*
Y1051377D01*
X354500Y738000D02*
X357500D01*
X356000Y736500D02*
Y739500D01*
X380662Y670838D02*
X383661D01*
X382161Y669339D02*
Y672338D01*
X556500Y1172000D02*
X559500D01*
X558000Y1170500D02*
Y1173500D01*
X588500Y1197000D02*
X591500D01*
X590000Y1195500D02*
Y1198500D01*
X194500Y336000D02*
X197500D01*
X196000Y334500D02*
Y337500D01*
X192500Y360000D02*
X195500D01*
X194000Y358500D02*
Y361500D01*
X505500Y143000D02*
X508500D01*
X507000Y141500D02*
Y144500D01*
X472500Y116000D02*
X475500D01*
X474000Y114500D02*
Y117500D01*
X492500Y116000D02*
X495500D01*
X494000Y114500D02*
Y117500D01*
X512500Y116000D02*
X515500D01*
X514000Y114500D02*
Y117500D01*
X615828Y143450D02*
X618828D01*
X617328Y141950D02*
Y144950D01*
X598700Y110146D02*
X601700D01*
X600200Y108646D02*
Y111646D01*
X596700Y152253D02*
X599700D01*
X598200Y150753D02*
Y153753D01*
X596700Y135146D02*
X599700D01*
X598200Y133646D02*
Y136646D01*
X586950Y143700D02*
X589950D01*
X588450Y142200D02*
Y145200D01*
X577200Y152253D02*
X580200D01*
X578700Y150753D02*
Y153753D01*
X585700Y110146D02*
X588700D01*
X587200Y108646D02*
Y111646D01*
X577200Y135146D02*
X580200D01*
X578700Y133646D02*
Y136646D01*
X558500Y131000D02*
X561500D01*
X560000Y129500D02*
Y132500D01*
X530500Y106000D02*
X533500D01*
X532000Y104500D02*
Y107500D01*
X572700Y110146D02*
X575700D01*
X574200Y108646D02*
Y111646D01*
X538500Y131000D02*
X541500D01*
X540000Y129500D02*
Y132500D01*
X505500Y173000D02*
X508500D01*
X507000Y171500D02*
Y174500D01*
X452500Y207000D02*
X455500D01*
X454000Y205500D02*
Y208500D01*
X530500Y202000D02*
X533500D01*
X532000Y200500D02*
Y203500D01*
X572400Y60650D02*
X575400D01*
X573900Y59150D02*
Y62150D01*
X572400Y47650D02*
X575400D01*
X573900Y46150D02*
Y49150D01*
X562400Y47650D02*
X565400D01*
X563900Y46150D02*
Y49150D01*
X539700Y29150D02*
X542700D01*
X541200Y27650D02*
Y30650D01*
X601000Y60650D02*
X604000D01*
X602500Y59150D02*
Y62150D01*
X611000Y60650D02*
X614000D01*
X612500Y59150D02*
Y62150D01*
X601000Y73650D02*
X604000D01*
X602500Y72150D02*
Y75150D01*
X611000Y73650D02*
X614000D01*
X612500Y72150D02*
Y75150D01*
X539700Y41850D02*
X542700D01*
X541200Y40350D02*
Y43350D01*
X562400Y73650D02*
X565400D01*
X563900Y72150D02*
Y75150D01*
X562400Y60650D02*
X565400D01*
X563900Y59150D02*
Y62150D01*
X572400Y73650D02*
X575400D01*
X573900Y72150D02*
Y75150D01*
X631500Y198000D02*
X634500D01*
X633000Y196500D02*
Y199500D01*
X611000Y47650D02*
X614000D01*
X612500Y46150D02*
Y49150D01*
X633700Y54550D02*
X636700D01*
X635200Y53050D02*
Y56050D01*
X601000Y47650D02*
X604000D01*
X602500Y46150D02*
Y49150D01*
X633700Y41850D02*
X636700D01*
X635200Y40350D02*
Y43350D01*
X633700Y29150D02*
X636700D01*
X635200Y27650D02*
Y30650D01*
X633700Y67250D02*
X636700D01*
X635200Y65750D02*
Y68750D01*
X624800Y20250D02*
X627800D01*
X626300Y18750D02*
Y21750D01*
X394500Y22000D02*
X397500D01*
X396000Y20500D02*
Y23500D01*
X561300Y20250D02*
X564300D01*
X562800Y18750D02*
Y21750D01*
X548600Y20250D02*
X551600D01*
X550100Y18750D02*
Y21750D01*
X584700Y20146D02*
X587700D01*
X586200Y18646D02*
Y21646D01*
X574000Y20250D02*
X577000D01*
X575500Y18750D02*
Y21750D01*
X599400Y20250D02*
X602400D01*
X600900Y18750D02*
Y21750D01*
X612100Y20250D02*
X615100D01*
X613600Y18750D02*
Y21750D01*
X378500Y8000D02*
X381500D01*
X380000Y6500D02*
Y9500D01*
X693500Y79000D02*
X696500D01*
X695000Y77500D02*
Y80500D01*
X665500Y66000D02*
X668500D01*
X667000Y64500D02*
Y67500D01*
X653500Y107000D02*
X656500D01*
X655000Y105500D02*
Y108500D01*
X689500Y184000D02*
X692500D01*
X691000Y182500D02*
Y185500D01*
X642500Y80000D02*
X645500D01*
X644000Y78500D02*
Y81500D01*
X689500Y124000D02*
X692500D01*
X691000Y122500D02*
Y125500D01*
X689500Y164000D02*
X692500D01*
X691000Y162500D02*
Y165500D01*
X689500Y144000D02*
X692500D01*
X691000Y142500D02*
Y145500D01*
X54500Y689000D02*
X57500D01*
X56000Y687500D02*
Y690500D01*
X114500Y780000D02*
X117500D01*
X116000Y778500D02*
Y781500D01*
X114500Y794000D02*
X117500D01*
X116000Y792500D02*
Y795500D01*
X46500Y780000D02*
X49500D01*
X48000Y778500D02*
Y781500D01*
X46500Y794000D02*
X49500D01*
X48000Y792500D02*
Y795500D01*
X36500Y680000D02*
X39500D01*
X38000Y678500D02*
Y681500D01*
X63500Y646000D02*
X66500D01*
X65000Y644500D02*
Y647500D01*
X72500Y622000D02*
X75500D01*
X74000Y620500D02*
Y623500D01*
X53500Y666000D02*
X56500D01*
X55000Y664500D02*
Y667500D01*
X53500Y646000D02*
X56500D01*
X55000Y644500D02*
Y647500D01*
X39500Y588000D02*
X42500D01*
X41000Y586500D02*
Y589500D01*
X54500Y530000D02*
X57500D01*
X56000Y528500D02*
Y531500D01*
X20500Y506000D02*
X23500D01*
X22000Y504500D02*
Y507500D01*
X125500Y373000D02*
X128500D01*
X127000Y371500D02*
Y374500D01*
X120500Y394000D02*
X123500D01*
X122000Y392500D02*
Y395500D01*
X130500Y401000D02*
X133500D01*
X132000Y399500D02*
Y402500D01*
X125000Y460722D02*
X128000D01*
X126500Y459222D02*
Y462222D01*
X79000Y529500D02*
X82000D01*
X80500Y528000D02*
Y531000D01*
X62000Y312500D02*
X65000D01*
X63500Y311000D02*
Y314000D01*
X36500Y384000D02*
X39500D01*
X38000Y382500D02*
Y385500D01*
X74500Y417000D02*
X77500D01*
X76000Y415500D02*
Y418500D01*
X99500Y417000D02*
X102500D01*
X101000Y415500D02*
Y418500D01*
X39998Y442502D02*
X42998D01*
X41498Y441002D02*
Y444002D01*
X54000Y486500D02*
X57000D01*
X55500Y485000D02*
Y488000D01*
X85723Y246223D02*
X88723D01*
X87223Y244723D02*
Y247723D01*
X135500Y271000D02*
X138500D01*
X137000Y269500D02*
Y272500D01*
X132500Y241000D02*
X135500D01*
X134000Y239500D02*
Y242500D01*
X112500Y305000D02*
X115500D01*
X114000Y303500D02*
Y306500D01*
X41500Y255000D02*
X44500D01*
X43000Y253500D02*
Y256500D01*
X45500Y282000D02*
X48500D01*
X47000Y280500D02*
Y283500D01*
X60500Y243000D02*
X63500D01*
X62000Y241500D02*
Y244500D01*
X117500Y200000D02*
X120500D01*
X119000Y198500D02*
Y201500D01*
X87340Y167114D02*
X90340D01*
X88840Y165614D02*
Y168614D01*
X146000Y229500D02*
X149000D01*
X147500Y228000D02*
Y231000D01*
X408500Y1307000D02*
X411500D01*
X410000Y1305500D02*
Y1308500D01*
X406500Y252000D02*
X411500D01*
X409000Y249500D02*
Y254500D01*
X155500Y107000D02*
X158500D01*
X157000Y105500D02*
Y108500D01*
X205500Y121000D02*
X208500D01*
X207000Y119500D02*
Y122500D01*
X274500Y116000D02*
X277500D01*
X276000Y114500D02*
Y117500D01*
X280500Y81000D02*
X283500D01*
X282000Y79500D02*
Y82500D01*
X280500Y95000D02*
X283500D01*
X282000Y93500D02*
Y96500D01*
X212500Y95000D02*
X215500D01*
X214000Y93500D02*
Y96500D01*
X218500Y175000D02*
X221500D01*
X220000Y173500D02*
Y176500D01*
X265500Y212000D02*
X268500D01*
X267000Y210500D02*
Y213500D01*
X251500Y212000D02*
X254500D01*
X253000Y210500D02*
Y213500D01*
X223500Y70000D02*
X226500D01*
X225000Y68500D02*
Y71500D01*
X452500Y218000D02*
X455500D01*
X454000Y216500D02*
Y219500D01*
X907500Y270000D02*
X912500D01*
X910000Y267500D02*
Y272500D01*
X782500Y372000D02*
X785500D01*
X784000Y370500D02*
Y373500D01*
X891500Y312000D02*
X894500D01*
X893000Y310500D02*
Y313500D01*
X873500Y297000D02*
X876500D01*
X875000Y295500D02*
Y298500D01*
X860500Y322000D02*
X863500D01*
X862000Y320500D02*
Y323500D01*
X824500Y322000D02*
X827500D01*
X826000Y320500D02*
Y323500D01*
X831500Y355000D02*
X834500D01*
X833000Y353500D02*
Y356500D01*
X848500Y366000D02*
X851500D01*
X850000Y364500D02*
Y367500D01*
X88500Y622161D02*
X91500D01*
X90000Y620661D02*
Y623661D01*
X218500Y724000D02*
X221500D01*
X220000Y722500D02*
Y725500D01*
X210500Y666000D02*
X213500D01*
X212000Y664500D02*
Y667500D01*
X218500Y589000D02*
X221500D01*
X220000Y587500D02*
Y590500D01*
X227500Y609000D02*
X230500D01*
X229000Y607500D02*
Y610500D01*
X226335Y531000D02*
X229335D01*
X227835Y529500D02*
Y532500D01*
X175500Y560000D02*
X178500D01*
X177000Y558500D02*
Y561500D01*
X275503Y519430D02*
X278503D01*
X277003Y517930D02*
Y520930D01*
X275503Y548640D02*
X278503D01*
X277003Y547140D02*
Y550140D01*
X275088Y533933D02*
X278088D01*
X276588Y532433D02*
Y535433D01*
X17373Y942873D02*
X22373D01*
X19873Y940373D02*
Y945373D01*
X825500Y438000D02*
X830500D01*
X828000Y435500D02*
Y440500D01*
X890500Y831000D02*
X895500D01*
X893000Y828500D02*
Y833500D01*
X935290Y902210D02*
X938290D01*
X936790Y900710D02*
Y903710D01*
X866377Y912877D02*
X871377D01*
X868877Y910377D02*
Y915377D01*
X980500Y902000D02*
X985500D01*
X983000Y899500D02*
Y904500D01*
X866377Y849877D02*
X871377D01*
X868877Y847377D02*
Y852377D01*
X936627Y883127D02*
X941627D01*
X939127Y880627D02*
Y885627D01*
M02*
